<svg xmlns="http://www.w3.org/2000/svg" viewBox="0 0 1200 1200" width="300" height="300"><title>bounce</title><rect width="1200" height="1200" fill="#faf9f5"/><g visibility="visible"><animate attributeName="visibility" calcMode="discrete" values="visible;hidden" keyTimes="0;0.0833" dur="1s" repeatCount="indefinite"/><path fill="#d97757" d="M579 174c6-1 12 0 18 0 6 1 12 2 18 3 5 1 11 3 17 5 5 3 10 5 16 8 5 3 10 6 14 10 5 3 10 7 14 11 4 4 8 8 12 13 3 4 7 9 10 14 3 5 6 10 8 15 3 5 5 11 7 16 2 6 3 11 4 17 1 6 2 12 2 17 1 6 0 12 0 18-1 6-2 11-3 17-1 6-3 11-5 17-3 5-5 10-8 15-3 5-6 10-10 14-3 5-7 9-11 13-4 4-8 8-13 11-4 4-8 7-13 10-5 3-10 6-15 8-5 3-10 5-16 6-5 2-10 4-16 5-5 1-11 1-17 2-5 0-11 0-17-1-5 0-11-1-16-2-6-1-11-2-17-4-5-2-10-4-15-7-5-3-10-5-15-9-4-3-9-6-13-10-4-4-8-8-12-12-4-4-7-9-10-13-4-5-6-10-9-15-3-5-5-11-7-16-2-5-3-11-4-16-2-6-2-12-3-18 0-5 0-11 0-17 0-6 1-11 2-17 1-6 3-11 4-17 2-5 4-11 7-16 2-5 5-11 9-15 3-5 6-10 10-14 4-5 8-9 13-13 4-4 9-7 14-11 4-3 10-6 15-9 5-2 11-5 16-7 6-2 12-3 18-4 5-1 11-2 17-2z"/><path fill="#e3dacc" d="M581 983c6 0 12 0 18 0 6 0 12 0 17 0 6 0 12 1 18 2 6 0 12 1 18 3 6 1 15 3 17 7 2 3-2 11-6 14-4 3-12 3-18 4-6 2-12 2-18 3-6 0-11 1-17 1-6 0-12 0-18 0-5 0-11 0-17-1-6 0-12-1-18-2-6-1-13-1-18-4-5-3-12-10-11-14 2-3 12-6 18-8 6-2 12-3 18-3 6-1 12-2 17-2z"/><path fill="#141413" d="M594 178c4 0 8 0 12 0 4 0 8 1 12 1 4 1 8 2 12 3 4 1 8 2 12 4 3 1 7 3 11 4 3 2 7 4 10 6 3 2 7 5 10 7 3 3 6 6 8 9 3 2 6 6 8 9 2 3 5 6 7 10 2 3 4 6 6 10 1 3 3 7 4 11 2 3 3 7 4 11 2 4 3 7 3 11 1 4 2 8 2 12 1 3 1 7 1 11 0 4 0 8 0 12-1 4-1 7-2 11-1 4-2 8-3 11-1 4-2 8-3 11-2 4-3 7-5 11-2 3-4 6-6 10-3 3-5 6-7 9-3 2-5 5-8 8-3 3-6 5-9 7-3 3-6 5-9 7-3 2-7 4-10 6-3 2-7 4-10 5-4 2-7 3-11 5-3 1-7 2-11 3-3 1-7 2-11 3-4 1-8 1-11 2-4 0-8 0-12 0-4 0-8 0-12-1-4 0-8-1-12-2-4-1-7-2-11-4-4-1-7-3-11-5-3-2-7-4-10-6-3-3-6-5-9-8-3-3-6-5-9-8-3-3-6-6-8-9-2-3-5-7-7-10-2-3-4-7-6-10-2-4-4-7-5-11-2-4-3-8-4-11-1-4-2-8-3-12-1-4-1-8-1-12-1-4-1-8-1-12 0-4 1-8 1-12 1-4 1-8 2-12 1-4 2-8 4-12 1-3 3-7 4-11 2-3 4-7 6-10 2-3 4-7 7-10 2-3 5-6 7-9 3-3 6-6 9-8 3-3 6-6 9-8 3-3 6-5 10-7 3-3 6-5 10-7 4-1 7-3 11-5 4-1 7-3 11-4 4-1 8-2 12-2 4-1 8-2 12-2zM579 159c-5 1-10 2-14 3-5 1-9 3-14 4-4 2-9 4-13 6-4 2-8 4-12 6-4 3-8 5-12 8-4 3-8 6-11 9-4 3-7 6-11 10-3 3-6 7-9 11-3 3-5 7-8 12-2 4-5 8-7 12-2 5-3 9-5 14-1 5-3 9-4 14-1 5-1 9-2 14 0 5 0 10 0 14 0 5 0 10 0 15 1 4 1 9 2 14 1 4 2 9 3 14 2 4 3 9 5 13 2 5 4 9 6 13 3 4 5 8 8 12 2 4 5 8 8 11 3 4 6 7 10 11 3 3 7 6 10 9 4 3 8 6 11 9 4 2 8 5 12 7 5 2 9 4 13 6 5 2 9 3 14 5 4 1 9 2 13 3 5 1 10 1 14 2 5 0 10 1 14 1 5 0 10 0 14-1 5 0 10-1 14-2 5 0 9-2 14-3 4-2 9-3 13-5 4-2 8-4 12-6 4-3 8-5 12-8 4-2 8-5 11-8 4-3 7-6 10-10 4-3 7-7 9-11 3-3 6-7 8-11 3-4 5-8 7-13 2-4 3-8 5-12 2-5 3-9 4-13 1-5 2-9 3-14 1-4 2-9 2-14 0-4 1-9 0-13 0-5 0-10-1-14 0-5-1-9-3-14-1-4-2-8-3-13-2-4-4-8-5-12-2-4-4-9-6-13-2-4-5-7-7-11-3-4-5-8-8-12-3-3-6-7-9-10-3-4-7-7-10-10-4-3-8-6-12-9-4-2-8-5-12-7-4-2-9-4-13-6-5-1-9-3-14-4-4-1-9-2-14-3-4-1-9-1-14-1-5 0-9 0-14 0-5 0-10 0-14 1z"/><path fill="#141413" d="M200 994c3 0 8 1 13 1 4 1 9 2 13 2 4 1 9 1 13 2 5 0 9 1 14 1 4 0 9 0 13 0 4 0 9-1 13-1 5 0 9 0 13 0 4-1 9-1 13-1 4 0 9 0 13 0 4 0 8 0 13 0 4 1 8 1 13 1 4 0 8 0 13 0 4 1 9 1 13 1 5 0 9 0 13 0 5 0 9 0 14 0 4 0 9 0 13 0 4 0 9-1 13-1 5 0 9 0 13 0 5 0 9 0 13 0 5 0 9 0 13 0 5 0 9 0 13 1 5 0 9 0 13 0 5 0 9 1 13 1 5 0 9 0 14 0 4 0 8 1 13 1 4 0 9 0 13 0 4 0 9 0 13 0 4 0 9 0 13 0 4 0 9-1 13-1 5 0 9 0 13 0 5 0 9 0 14 0 4 0 8-1 13-1 4 0 8 0 13 0 4 0 8 0 13 0 4 0 9 0 13 0 4 0 9 0 13 0 5 0 9 0 13 0 5 0 9 0 13 0 5 1 9 1 14 1 4 0 8 0 13 0 4 0 8 0 13 0 4 0 9 1 13 1 4 0 9 0 13 0 4 0 9 0 13-1 5 0 9 0 13 0 5 0 9 0 13 0 5 0 9 0 13 0 5-1 9-1 14-1 4 0 8 0 13 0 4-1 8-1 13-1 4 0 9 0 13 0 4 0 9 0 13 0 4 0 9 0 13 0 4 0 9 0 13 0 5 0 9 0 13 0 5 0 9 0 14 0 4 0 8 0 13-1 4 0 9 0 13-1 4 0 9 0 13-1 4 0 9-1 13-1 4 0 10 0 13-1 3 0 4 0 5-1 1-1 2-3 3-4 0-2 0-4 0-5-1-2-2-4-3-5-1-1-2-1-5-1-3-1-9-1-13-1-5 0-9-1-13-1-5 0-9-1-14-1-4 0-8 0-13 0-4 0-8 0-13 1-4 0-8 0-13 0-4 0-9 0-13 0-4 0-9 0-13 0-4 0-9 0-13 0-4 0-9 0-13 0-5 0-9 0-13 0-5 0-9 0-13-1-5 0-9 0-14 0-4 0-8 0-13 0-4-1-8-1-13-1-4 0-9 0-13 0-4 0-9 0-13 0-4 1-9 1-13 1-5 0-9 0-13 0-5 0-9 0-13 0-5 0-9 0-13 1-5 0-9 0-14 0-4 0-8 0-13 1-4 0-8 0-13 0-4 0-9 0-13 0-4 0-9 0-13 0-4 0-9 0-13 0-4 0-9 0-13 0-5 0-9 0-13 0-5 0-9-1-13-1-5 0-9 0-13 0-5 0-9-1-14-1-4 0-8 0-13 0-4 0-8 0-13 0-4-1-9-1-13-1-4 0-9 0-13 0-4 0-9 0-13 0-4 0-9 0-13 0-4 0-9 0-13 0-5 0-9 0-13 0-5 0-9 1-14 1-4 0-8 0-13 0-4 0-9 0-13 0-5 0-9 1-13 1-5 0-9 0-13 0-5 0-9 0-13 0-5 0-9 0-13 0-5 0-9 0-13 0-4 0-9-1-13-1-4 0-9-1-13-1-5 0-9 0-13-1-5 0-9 0-14 0-4 0-9 0-13 0-5 0-9 0-14 0-4 0-8 1-13 1-4 0-8 0-13 0-4 1-8 1-13 1-4 0-8 1-13 1-4 0-8 1-12 1-5 1-9 1-14 1-4 0-10 0-13 0-3 0-3 0-4 1-2 1-3 3-3 4-1 2-1 4-1 5 1 2 2 3 3 4 1 1 2 1 5 2z"/></g><g visibility="hidden"><animate attributeName="visibility" calcMode="discrete" values="hidden;visible;hidden" keyTimes="0;0.0833;0.1667" dur="1s" repeatCount="indefinite"/><path fill="#d97757" d="M579 178c6 0 12 0 18 0 6 1 12 2 18 3 5 1 11 3 17 5 5 3 10 5 16 8 5 3 10 6 14 10 5 3 10 7 14 11 4 4 8 8 12 13 3 4 7 9 10 14 3 5 6 10 9 15 2 5 4 11 6 16 2 6 4 11 5 17 1 6 1 11 2 17 0 6 0 12-1 18 0 5-1 11-3 17-1 5-3 11-5 16-2 6-5 11-8 16-3 5-6 10-9 14-4 5-8 9-12 13-4 4-8 8-12 11-5 3-9 7-14 10-5 3-10 5-15 8-5 2-10 4-16 6-5 2-10 3-16 4-5 1-11 2-17 2-5 0-11 0-17 0-5 0-11-1-16-2-6-1-11-3-17-5-5-2-10-4-15-6-5-3-10-6-15-9-4-3-9-7-13-10-4-4-8-8-12-12-4-5-7-9-10-14-4-4-7-9-9-14-3-6-5-11-7-16-2-6-3-11-5-17-1-5-2-11-2-17-1-5-1-11 0-17 0-6 1-12 2-17 1-6 2-12 4-17 2-6 4-11 7-16 2-6 5-11 9-15 3-5 6-10 10-14 4-5 8-9 13-13 4-4 9-7 14-11 4-3 10-6 15-9 5-2 11-5 16-7 6-1 12-3 18-4 5-1 11-2 17-2z"/><path fill="#e3dacc" d="M581 983c6 0 12-1 18 0 6 0 12 0 18 0 5 0 11 1 17 2 6 0 12 1 18 3 6 1 16 3 18 7 2 3-2 11-7 14-4 3-12 3-18 4-6 2-12 2-17 3-6 0-12 1-18 1-6 0-12 0-18 0-6 0-11 0-17-1-6 0-12-1-18-2-6-1-14-1-18-4-5-3-12-10-11-14 1-3 11-6 17-8 6-2 12-3 18-4 6 0 12-1 18-1z"/><path fill="#141413" d="M594 182c4 0 8 0 12 0 4 1 8 1 12 2 4 0 8 1 12 2 4 1 8 2 12 4 3 1 7 3 11 4 3 2 7 4 10 6 3 3 7 5 10 7 3 3 6 6 8 9 3 2 6 6 8 9 2 3 5 6 7 10 2 3 4 6 6 10 2 3 3 7 5 11 1 3 2 7 4 11 1 4 2 7 3 11 0 4 1 8 2 12 0 3 0 7 0 11 0 4 0 8 0 11 0 4-1 8-2 12 0 4-1 7-2 11-1 4-3 8-4 11-2 4-3 7-5 11-2 3-4 6-6 9-2 3-5 6-7 9-3 3-5 6-8 8-3 3-6 6-9 8-3 2-6 5-9 7-3 2-6 4-10 6-3 1-7 3-10 5-4 1-7 3-11 4-3 2-7 3-11 4-3 1-7 2-11 3-4 0-8 1-11 1-4 1-8 1-12 1-4 0-8-1-12-1-4-1-8-2-12-3-4-1-7-2-11-3-4-2-7-4-11-6-3-2-7-4-10-6-3-2-6-5-9-7-3-3-6-6-9-9-3-2-6-6-8-9-3-3-5-6-7-9-2-4-4-7-6-11-2-3-4-7-6-10-1-4-2-8-3-12-2-4-3-7-3-11-1-4-1-8-2-12 0-4 0-8 0-12 0-4 0-8 1-12 0-4 1-8 2-12 1-4 2-8 4-12 1-3 2-7 4-11 2-3 4-7 6-10 2-3 4-7 6-10 3-3 5-6 8-9 3-3 6-6 9-8 3-3 6-6 9-8 3-3 6-5 10-7 3-3 6-5 10-6 4-2 7-4 11-6 4-1 7-3 11-4 4-1 8-2 12-2 4-1 8-1 12-2zM579 163c-5 1-10 2-14 3-5 1-9 3-14 4-4 2-9 4-13 6-4 2-8 4-12 6-4 3-8 5-12 8-4 3-8 6-11 9-4 3-7 6-11 10-3 3-6 7-9 10-3 4-6 8-8 12-2 5-5 9-7 13-2 5-4 9-5 14-2 4-3 9-4 14-1 4-1 9-2 14 0 5-1 10-1 14 0 5 1 10 1 14 1 5 1 10 2 15 1 4 2 9 3 14 2 4 3 9 5 13 2 4 4 9 6 13 3 4 5 8 8 12 2 4 5 7 8 11 3 4 6 7 10 10 3 4 7 7 10 10 4 3 8 6 11 8 4 3 8 5 12 7 5 3 9 5 13 7 5 1 9 3 14 4 4 1 9 3 13 3 5 1 10 2 14 2 5 1 10 1 14 1 5 0 10 0 14 0 5-1 10-1 14-2 5-1 9-2 14-4 4-1 9-3 13-5 4-1 8-4 12-6 4-2 8-4 12-7 4-3 8-5 11-9 4-3 7-6 11-9 3-4 6-7 8-11 3-4 6-8 8-12 3-4 5-8 7-12 2-4 4-8 5-13 2-4 3-8 4-13 2-4 3-9 3-13 1-5 2-9 2-14 1-4 1-9 1-14 0-4-1-9-2-13 0-5-1-9-2-14-1-4-3-9-4-13-2-4-3-8-5-12-2-5-4-9-6-13-2-4-5-8-7-11-2-4-5-8-8-12-3-3-6-7-9-11-3-3-7-6-10-9-4-3-8-6-12-9-4-2-8-5-12-7-4-2-9-4-13-6-5-1-9-3-14-4-4-1-9-2-14-3-4 0-9-1-14-1-5 0-9 0-14 0-5 0-10 1-14 1z"/><path fill="#141413" d="M200 994c3 0 8 1 13 1 4 1 9 2 13 2 4 1 9 2 13 2 5 0 9 1 14 1 4 0 9 0 13 0 4 0 9-1 13-1 4 0 9 0 13 0 4-1 9-1 13-1 4 0 9 0 13 0 4 0 8 0 13 0 4 1 8 1 13 1 4 0 8 0 13 0 4 1 9 1 13 1 5 0 9 0 13 0 5 0 9 0 14 0 4 0 9 0 13 0 4 0 9-1 13-1 5 0 9 0 13 0 5 0 9 0 13 0 5 0 9 0 13 0 5 0 9 0 13 1 5 0 9 0 13 0 5 1 9 1 13 1 5 0 9 0 14 0 4 1 8 1 13 1 4 0 9 0 13 0 4 0 9 0 13 0 4 0 9 0 13 0 4 0 9-1 13-1 5 0 9 0 13 0 5 0 9 0 14 0 4 0 8-1 13-1 4 0 8 0 13 0 4 0 8 0 13 0 4 0 9 0 13 0 4 0 9 0 13 0 5 0 9 0 13 0 5 0 9 0 13 0 5 1 9 1 14 1 4 0 8 0 13 0 4 0 8 0 13 0 4 0 9 1 13 1 4 0 9 0 13 0 4 0 9-1 13-1 5 0 9 0 13 0 5 0 9 0 13 0 5 0 9 0 13 0 5-1 9-1 14-1 4 0 8 0 13 0 4-1 8-1 13-1 4 0 9 0 13 0 4 0 9 0 13 0 4 0 9 0 13 0 4 0 9 0 13 0 5 0 9 0 13 0 5 0 9 0 14 0 4 0 8 0 13-1 4 0 9 0 13-1 4 0 9 0 13-1 4 0 9-1 13-1 4 0 10 0 13-1 3 0 4 0 5-1 1-1 2-3 3-4 0-2 0-4 0-5-1-2-2-4-3-5-1-1-2-1-5-1-3-1-9-1-13-1-5 0-9-1-13-1-5 0-9-1-14-1-4 0-8 0-13 0-4 0-8 0-13 1-4 0-8 0-13 0-4 0-9 0-13 0-4 0-9 0-13 0-4 0-9 0-13 0-4 0-9 0-13 0-5 0-9 0-13 0-5 0-9-1-13-1-5 0-9 0-14 0-4 0-8 0-13 0-4-1-8-1-13-1-4 0-9 0-13 0-4 0-9 0-13 0-4 0-9 1-13 1-5 0-9 0-13 0-5 0-9 0-13 0-5 0-9 0-13 1-5 0-9 0-14 0-4 0-8 0-13 1-4 0-8 0-13 0-4 0-9 0-13 0-4 0-9 0-13 0-4 0-9 0-13 0-4 0-9 0-13 0-5 0-9 0-13 0-5 0-9-1-13-1-5 0-9 0-13 0-5 0-9-1-14-1-4 0-8 0-13 0-4 0-8 0-13 0-4-1-9-1-13-1-4 0-9 0-13 0-4 0-9 0-13 0-4 0-9 0-13 0-4 0-9 0-13 0-5 0-9 0-13 0-5 0-9 1-14 1-4 0-8 0-13 0-4 0-9 0-13 0-5 0-9 1-13 1-5 0-9 0-13 0-5 0-9 0-13 0-5 0-9 0-13 0-5 0-9 0-13 0-4 0-9-1-13-1-4 0-9-1-13-1-5 0-9 0-13-1-5 0-9 0-14 0-4 0-9 0-13 0-5 0-9 0-14 0-4 0-8 1-13 1-4 0-8 0-13 0-4 1-8 1-13 1-4 0-8 1-13 1-4 0-8 1-12 1-5 1-9 1-14 1-4 0-10 0-13 0-3 0-3 0-4 1-2 1-3 3-3 4-1 2-1 4-1 5 1 2 2 3 3 4 1 1 2 1 5 2z"/></g><g visibility="hidden"><animate attributeName="visibility" calcMode="discrete" values="hidden;visible;hidden" keyTimes="0;0.1667;0.25" dur="1s" repeatCount="indefinite"/><path fill="#d97757" d="M580 238c5-1 11 0 16 0 5 0 11 1 16 2 5 1 11 2 16 4 5 1 10 3 15 5 5 2 10 5 14 8 5 2 10 5 14 9 4 3 8 7 12 11 4 4 8 8 11 12 3 5 6 9 9 14 3 5 5 10 8 15 2 5 4 10 5 16 1 5 3 11 3 16 1 6 1 12 1 17-1 6-2 12-3 17-1 6-2 11-4 17-2 5-5 10-7 15-3 6-6 11-9 15-4 5-7 10-11 14-4 4-8 8-13 12-4 3-9 7-14 10-5 3-10 6-16 8-5 3-10 5-16 6-6 2-11 3-17 4-6 1-12 1-17 2-6 0-12-1-18-1-6-1-11-2-17-3-6-1-11-3-17-5-5-1-10-4-16-6-5-3-10-6-15-9-4-3-9-6-13-10-5-4-9-8-13-12-4-4-7-9-11-13-3-5-6-10-8-15-3-6-5-11-7-16-2-6-3-11-4-17-1-6-2-11-2-17 0-6 1-11 1-17 1-5 2-11 4-16 1-6 3-11 6-16 2-5 5-10 8-15 2-4 6-9 9-13 4-5 7-9 11-13 4-3 9-7 13-10 4-3 9-6 14-9 5-2 10-4 15-6 5-2 10-4 15-5 5-2 11-3 16-4 5 0 11-1 16-1z"/><path fill="#e3dacc" d="M579 988c6 0 12 0 18 0 5 0 11 0 17 0 6 1 12 1 17 2 6 0 12 1 17 2 5 1 11 2 16 3 4 1 11 4 11 6 0 1-8 3-13 4-5 2-11 2-16 3-6 1-11 1-17 1-6 1-11 1-17 1-6 0-12 0-17 0-6 0-12 0-17-1-6 0-12 0-17-1-6-1-11-1-17-2-5-1-12-1-15-3-2-2-1-5 2-7 2-2 9-3 15-4 5-1 11-2 16-2 6-1 12-1 17-2z"/><path fill="#141413" d="M594 231c4-1 8-1 12 0 4 0 8 0 12 1 4 0 8 1 12 2 4 0 8 1 11 3 4 1 8 2 12 4 3 2 7 3 10 5 4 2 7 4 11 7 3 2 6 5 9 7 3 3 6 6 9 9 3 2 5 5 8 9 2 3 4 6 6 9 3 4 4 7 6 11 2 3 4 7 5 11 1 3 2 7 3 11 1 4 2 8 2 12 1 4 1 8 1 12 0 4 0 7 0 11-1 4-1 8-2 12-1 4-2 8-3 11-1 4-3 8-4 12-2 3-4 7-6 10-2 4-4 7-6 10-2 3-5 6-7 10-3 3-6 5-8 8-3 3-6 6-9 8-4 3-7 5-10 7-3 3-7 5-10 6-4 2-7 4-11 5-4 2-8 3-11 4-4 1-8 2-12 2-4 0-8 1-12 1-4 0-8-1-12-1-3 0-7-1-11-2-4 0-8-1-12-2-3-1-7-2-11-3-4-1-7-2-11-4-4-1-7-3-11-4-3-2-7-4-10-6-3-2-6-4-9-6-3-3-6-5-9-8-3-2-5-5-8-8-2-3-4-6-7-9-2-3-4-7-5-10-2-3-4-7-5-10-2-4-3-8-4-11-1-4-2-7-3-11-1-4-1-7-2-11 0-4 0-8 0-11 0-4 0-8 1-12 0-3 1-7 2-11 1-3 2-7 3-11 1-3 3-7 4-10 2-4 4-7 6-11 2-3 4-6 6-9 2-4 5-7 7-10 3-2 5-5 8-8 3-3 6-5 9-7 3-3 7-5 10-7 3-2 7-4 10-6 4-1 8-3 11-4 4-2 8-3 12-4 3-1 7-2 11-2 4-1 8-1 12-1zM578 206c-4 1-9 2-14 3-4 1-9 3-14 5-4 1-8 3-13 5-4 2-8 5-12 7-4 3-8 5-12 8-4 3-8 6-11 9-4 4-7 7-10 11-3 3-6 7-9 11-3 4-5 8-8 12-2 4-4 8-6 12-2 4-4 9-5 13-2 5-3 9-4 14-1 4-2 9-2 13-1 5-1 10-1 14 0 5 0 10 0 14 1 5 2 9 3 14 1 4 2 9 3 13 2 5 3 9 5 13 2 4 4 9 6 13 2 4 4 8 7 12 2 4 5 7 8 11 3 4 6 7 10 10 3 4 7 7 10 10 4 2 8 5 12 8 4 2 8 4 12 6 4 2 8 4 13 6 4 1 8 3 13 4 4 1 9 3 13 3 4 1 9 2 14 2 4 1 9 1 13 1 5 1 10 0 14 0 5 0 10-1 14-2 5 0 10-2 14-3 5-1 9-3 13-4 5-2 9-4 13-6 4-2 9-5 12-7 4-3 8-6 12-9 3-3 7-6 10-9 3-3 7-6 10-10 3-3 6-7 8-11 3-4 5-7 8-12 2-4 4-8 6-12 2-4 4-9 5-13 1-5 3-9 4-14 1-4 1-9 2-14 0-4 1-9 1-14 0-4-1-9-1-14-1-4-1-9-2-14-1-4-2-9-4-14-1-4-3-9-5-13-2-4-4-9-7-13-2-4-5-8-8-12-3-3-6-7-9-11-3-3-7-6-10-10-4-3-8-6-12-8-3-3-7-6-11-8-5-3-9-5-13-7-4-2-9-4-13-6-5-1-10-3-14-4-5-1-10-2-14-3-5 0-10-1-15-1-5 0-9 0-14 0-5 0-10 1-15 1z"/><path fill="#141413" d="M200 997c3 0 9 0 13 1 5 0 9 0 13 1 5 0 9 1 14 1 4 0 8 1 13 1 4 0 9-1 13-1 4 0 9 0 13 0 5 0 9-1 13-1 5 0 9 0 13 0 5 0 9-1 14-1 4 0 8 0 13 0 4 0 8-1 13-1 4 0 8 0 13 0 4 0 8 0 13 0 4 0 8-1 13-1 4 0 8 0 13 0 4 0 9 0 13 0 4 0 9 0 13 0 4 0 9 0 13 0 4 0 9 0 13 0 5 0 9 0 13 0 5 0 9 0 13 0 5 0 9 0 13 0 5 0 9 0 14 0 4 0 8 0 13 0 4 0 8 0 13 0 4 0 9 0 13 0 4 0 9 0 13 0 4 0 9 0 13 0 5 0 9 0 13 0 5 0 9 0 14 0 4 0 8 0 13-1 4 0 8 0 13 0 4 0 8 0 13 0 4 0 8 0 13 0 4 0 9 0 13 0 4 0 9 0 13 0 4 0 9 0 13 0 5 0 9 0 13 0 5 0 9 0 14 0 4 0 8 0 13 0 4-1 9-1 13-1 4 0 9-1 13-1 4 0 9 0 13 0 5 0 9 0 13 0 5 0 9 0 13-1 5 0 9 0 13 0 5 0 9 0 14 0 4 0 8 0 13 0 4 1 8 1 13 1 4 0 8 0 13 0 4 1 8 1 13 1 4 0 8 0 13 1 4 0 8 0 13 0 4 1 9 1 13 1 4 0 9 0 13 0 5 0 9 0 14 0 4 0 8 0 13-1 4 0 9-1 13-1 4-1 9-2 13-3 4-1 9-1 13-2 5 0 10 0 13-1 3 0 4 0 5-1 1-1 2-3 3-4 0-2 0-4 0-5-1-2-2-3-3-4-2-1-2-1-5-2-3 0-9 0-13 0-5 0-9-1-14-1-4-1-8-1-13-1-4-1-8-1-13-1-4 0-8 0-13 0-4 0-8 0-13 0-4 0-8 0-13 0-4-1-8-1-13-1-4 0-8 0-13 0-4 0-9 0-13 0-4 0-9 0-13 1-5 0-9 0-14 1-4 0-8 0-13 0-4 1-8 1-13 1-4 0-9 1-13 1-4 0-9 0-13 0-4 0-9 0-13 0-5 0-9 0-13 0-5 0-9 0-13 1-5 0-9 0-14 0-4 0-8 0-13 0-4 0-8 0-13 0-4 0-8 0-13 0-4 0-8 0-13 0-4 0-8 0-13 0-4 0-8 0-13 0-4-1-9-1-13-1-4 0-9 0-13 0-5 0-9 0-13 0-5 0-9 0-14 0-4 0-8 0-13 0-4 0-8 0-13 0-4 0-8 0-13 0-4 0-9 0-13 0-4 0-9 0-13 0-4 0-9-1-13-1-4 0-9 0-13 0-4 0-9 0-13 0-5 0-9 0-13 0-5 0-9 0-14 0-4 0-8 0-13 0-4 0-8 0-13 0-4 0-9 0-13 0-4 0-9 0-13 0-4 0-9 0-13 0-5 0-9 0-13 0-5 0-9 0-14 0-4 0-8 0-13 0-4 0-8 0-13 0-4 0-9 0-13 0-4 0-9 0-13 1-5 0-9 0-13 0-5 0-9 0-14 0-4 1-8 1-13 1-4 0-8 0-13 0-4 1-9 1-13 1-4 0-9 0-13 0-4 1-9 1-13 2-4 0-9 1-13 1-4 1-9 2-13 2-4 0-10 0-13 1-3 0-4 0-5 1-2 1-3 3-3 5-1 1-1 3 0 5 0 2 2 3 3 4 1 1 2 2 5 2z"/></g><g visibility="hidden"><animate attributeName="visibility" calcMode="discrete" values="hidden;visible;hidden" keyTimes="0;0.25;0.3333" dur="1s" repeatCount="indefinite"/><path fill="#d97757" d="M580 336c5 0 11 0 16 0 6 0 11 1 17 2 5 1 10 2 16 3 5 2 10 3 15 6 6 2 11 4 15 6 5 3 10 6 15 9 4 3 9 7 13 11 4 3 8 7 11 11 4 5 8 9 11 14 3 4 6 9 8 14 2 5 5 11 6 16 2 6 3 11 3 17 1 6 0 12 0 17-1 6-3 12-4 17-2 6-4 11-7 16-3 6-6 11-9 15-4 5-7 10-11 14-4 4-8 8-13 12-4 4-9 8-14 11-5 3-10 6-16 8-5 3-10 5-16 7-6 2-11 3-17 5-6 1-12 1-18 2-5 0-11 0-17 0-6 0-12-1-18-1-6-1-11-2-17-4-6-1-11-3-17-5-5-2-10-5-16-7-5-3-10-6-15-9-5-3-9-7-14-11-4-3-8-7-12-12-4-4-8-9-11-14-3-4-6-9-9-15-2-5-4-11-6-16-1-6-2-11-3-17 0-6 0-12 0-17 1-6 2-12 4-17 2-5 4-11 7-16 2-5 5-9 8-14 4-5 7-9 11-13 4-4 8-8 12-12 4-3 9-7 14-10 4-3 9-5 14-8 5-2 10-4 16-6 5-2 10-3 15-4 6-2 11-3 17-4 5 0 10-1 16-1z"/><path fill="#e3dacc" d="M575 987c5 0 11 0 17 0 5 0 11 0 16 0 6 0 11 1 17 1 5 0 11 1 16 1 6 1 12 1 17 2 5 1 11 2 16 3 5 1 12 1 14 3 2 1 2 4 0 6-2 1-9 2-14 3-5 1-11 2-16 2-5 1-11 1-16 2-6 0-12 0-17 1-6 0-11 0-17 0-5 0-11 0-16 0-6 0-11 0-17 0-5-1-11-1-16-2-6 0-11-1-17-1-5-1-10-2-15-3-5 0-12-1-14-2-3-2-3-4-1-6 3-1 9-2 14-4 5-1 11-2 16-3 5 0 11-1 16-2 6 0 11 0 17-1z"/><path fill="#141413" d="M594 329c4 0 8 0 12 0 4 0 8 0 12 1 4 0 8 1 12 2 4 0 8 1 12 2 4 1 8 3 12 4 4 2 7 3 11 5 4 2 7 4 11 6 3 3 6 5 10 7 3 3 6 5 9 8 3 3 6 6 8 9 3 3 6 6 8 9 2 3 5 7 7 10 2 4 3 7 5 11 1 4 3 7 4 11 1 4 2 8 2 11 1 4 1 8 1 12 0 4 0 8-1 12-1 3-2 7-3 11-1 4-2 7-4 11-2 3-3 7-5 10-2 4-5 7-7 10-2 4-5 7-8 10-2 3-5 6-8 8-3 3-6 6-9 8-3 3-7 5-10 7-4 3-7 5-11 7-3 1-7 3-10 5-4 1-8 2-12 4-4 1-8 1-12 2-4 1-8 1-12 1-4 0-8 0-12 0-4 0-8-1-12-1-3-1-7-1-11-2-4-1-8-1-12-2-4-1-8-2-12-4-3-1-7-2-11-4-3-1-7-2-11-4-3-2-7-4-10-6-3-2-6-4-10-6-3-3-6-5-8-8-3-2-6-5-8-8-3-3-5-6-7-9-2-3-5-7-6-10-2-3-4-7-5-10-2-4-3-7-4-11-2-3-2-7-3-10-1-4-1-8-1-11 0-4 0-7 1-11 0-3 1-7 2-11 1-3 3-7 4-10 1-4 3-7 5-11 2-3 4-6 6-10 2-3 4-6 7-9 2-3 5-6 8-9 3-2 6-5 9-8 3-2 6-5 9-7 3-2 7-4 10-6 4-2 8-4 11-5 4-2 8-3 12-5 3-1 7-2 11-3 4-1 8-2 12-2 4-1 8-1 12-1zM578 304c-4 1-9 2-14 3-4 1-9 3-14 4-4 2-9 3-13 5-4 2-9 4-13 7-4 2-8 4-12 7-4 3-8 5-12 9-3 3-7 6-10 9-4 4-7 7-10 11-3 3-6 7-8 11-3 4-5 8-8 12-2 5-4 9-6 13-1 5-3 9-4 14-2 4-3 9-3 14-1 5-1 9-1 14 0 5 1 10 1 15 1 4 2 9 4 13 1 5 3 9 5 14 2 4 4 8 6 12 2 4 4 8 7 12 3 4 6 8 9 11 3 4 6 7 9 11 4 3 7 6 11 9 4 3 8 5 12 8 4 2 8 4 12 7 4 2 9 3 13 5 4 2 9 3 13 5 4 1 9 2 13 3 5 1 9 2 14 2 4 1 9 2 13 2 5 0 10 0 14 0 5 0 10 0 14-1 5 0 10-1 14-2 5-1 9-2 14-3 4-2 9-3 13-5 5-2 9-4 13-6 4-2 8-5 12-7 4-3 8-6 11-8 4-3 8-6 11-9 4-4 7-7 10-10 3-4 6-7 9-11 3-4 5-8 8-12 2-4 4-8 6-13 2-4 4-8 5-13 2-4 3-9 4-14 1-5 1-10 1-14 0-5 0-10 0-15-1-5-2-10-3-14-1-5-2-10-4-14-2-5-4-9-6-14-3-4-5-8-8-12-3-4-6-8-9-12-3-3-6-7-10-10-3-3-7-6-11-9-4-3-8-6-12-9-4-2-8-5-12-7-4-2-8-4-13-6-4-2-9-4-13-5-5-2-10-3-14-4-5-1-10-2-14-3-5 0-10-1-15-1-5 0-9 0-14 0-5 0-10 1-15 1z"/><path fill="#141413" d="M200 997c3 0 9 0 13 1 4 0 9 1 13 1 5 0 9 1 13 1 5 1 9 1 14 1 4 0 8 0 13 0 4 0 9 0 13 0 4-1 9-1 13-1 5 0 9 0 13 0 5 0 9-1 13-1 5 0 9 0 13 0 5 0 9-1 14-1 4 0 8 0 13 0 4 0 8 0 13 0 4 0 8 0 13 0 4 0 8-1 13-1 4 0 9 0 13 0 4 0 9 0 13 0 4 0 9 0 13 0 4 0 9 0 13 0 5 0 9 0 13 0 5 0 9 0 13 0 5 0 9 0 14 0 4 0 8 0 13 0 4 0 8 0 13 0 4 0 8 0 13 0 4 0 9 0 13 0 4 0 9 0 13 0 5 0 9 0 13 0 5 0 9-1 14-1 4 0 8 0 13 0 4 0 8 0 13-1 4 0 8 0 13 0 4 0 8 0 13 0 4-1 9-1 13-1 4 0 9 0 13 0 4 0 9 0 13 0 4 0 9 1 13 1 5-1 9-1 13-1 5 0 9 0 14 0 4 0 8 0 13 0 4-1 9-1 13-1 4 0 9-1 13-1 5 0 9 0 13 0 5 0 9-1 13-1 5 0 9 0 13 0 5 0 9 0 13 0 5 0 9 0 14 0 4 0 8 0 13 0 4 0 8 1 13 1 4 0 8 0 13 0 4 0 8 1 13 1 4 0 8 0 13 1 4 0 8 0 13 1 4 0 8 0 13 0 4 0 9 0 13 0 5 0 9 0 14 0 4 0 8 0 13 0 4 0 9-1 13-2 4 0 9-1 13-2 4-1 9-2 13-2 4 0 10 0 13-1 3 0 4 0 5-1 1-1 2-3 3-4 0-2 0-4 0-5-1-2-2-3-3-4-2-1-2-1-5-2-3 0-9 0-13 0-5-1-9-1-13-1-5-1-9-1-14-2-4 0-8 0-13-1-4 0-8 0-13 0-4 0-8 0-12 0-5 0-9 0-13 0-5 0-9-1-13-1-5 0-9 0-14 0-4 0-8 0-13 0-4 0-9 0-13 1-5 0-9 0-13 0-5 1-9 1-14 1-4 1-8 1-13 1-4 0-9 0-13 1-4 0-9 0-13 0-4 0-9 0-13 0-5 0-9 0-13 0-5 0-9 0-14 0-4 1-8 1-13 1-4 0-8 0-13 0-4 0-8 0-13 0-4 0-8 0-13 0-4 0-8 0-13 0-4 0-8 0-13 0-4 0-9 0-13 0-4 0-9 0-13 0-5 0-9 0-13 0-5 0-9 0-13 0-5 0-9 0-14 0-4 0-8 0-13 0-4 0-9 0-13 0-4 0-9 0-13 0-4 0-9 0-13 0-4 0-9 0-13 0-4 0-9 0-13 0-4 0-9 0-13 0-5 0-9 0-13 0-5 0-9 0-14 0-4 0-8 0-13 0-4 0-8 0-13 0-4 0-9 0-13 0-4 0-9 0-13 0-4 0-9 0-13 0-4 0-9 0-13 0-5 0-9 0-13 0-5 0-9 0-13 0-5 0-9 0-14 0-4 0-8 0-13 0-4 0-9 0-13 0-4 0-9 0-13 1-5 0-9 0-13 0-5 0-9 0-14 0-4 0-8 1-13 1-4 0-8 0-13 0-4 0-8 0-13 0-4 1-8 1-13 1-4 0-9 1-13 1-4 0-9 1-13 2-4 0-9 1-13 1-4 0-10 0-13 1-3 0-4 0-5 1-2 1-3 3-3 5-1 1-1 3 0 5 0 2 1 3 3 4 1 1 2 2 5 2z"/></g><g visibility="hidden"><animate attributeName="visibility" calcMode="discrete" values="hidden;visible;hidden" keyTimes="0;0.3333;0.4167" dur="1s" repeatCount="indefinite"/><path fill="#d97757" d="M580 482c5 0 11 0 17 0 5 0 11 1 16 2 6 1 11 2 17 4 5 1 10 3 16 5 5 2 10 4 15 6 5 3 10 5 15 8 5 3 9 6 14 9 4 3 9 7 13 10 4 4 8 8 12 12 3 5 7 9 10 14 3 4 5 10 7 15 2 5 3 11 4 16 0 6 0 12-2 17-1 6-3 11-5 16-3 5-6 10-9 15-3 5-7 9-11 13-4 4-8 8-13 12-4 4-9 7-14 10-4 3-9 6-15 9-5 2-10 5-15 7-6 2-11 4-17 5-5 2-11 3-17 4-5 1-11 2-17 2-6 1-11 1-17 1-6 0-12-1-17-1-6-1-12-2-18-3-5-1-11-3-16-4-6-2-11-4-17-6-5-2-10-5-15-7-5-3-10-6-15-9-5-4-9-7-14-11-4-4-8-8-12-12-4-4-7-9-10-14-3-4-6-10-8-15-2-5-4-11-5-16-1-6-1-11 0-17 1-5 3-11 5-16 2-5 5-10 8-15 3-4 6-9 10-13 4-4 8-8 12-11 4-4 9-7 13-11 5-3 10-6 15-8 4-3 9-6 15-8 5-2 10-4 15-6 5-2 11-4 16-5 6-1 11-2 17-3 5-1 11-1 17-1z"/><path fill="#e3dacc" d="M568 985c6 0 11 0 17-1 6 0 11 0 17 0 6 0 11 0 17 0 6 0 11 0 17 0 6 0 11 0 17 0 6 0 12 0 17 1 6 0 12 0 17 1 6 0 12 0 18 2 6 1 16 2 19 5 3 4 0 13-3 17-4 4-13 5-19 7-6 2-12 2-18 3-6 1-11 2-17 2-6 1-12 1-17 2-6 0-12 0-18 0-5 0-11 0-17 0-6 0-11 0-17 0-6 0-12-1-17-1-6 0-12 0-17-1-6 0-12-1-18-1-5-1-11-1-17-2-5-1-11-2-17-3-6-1-11-2-17-3-6-2-15-4-17-7-2-4 1-10 4-13 4-3 12-3 18-4 6-1 11-1 17-2 6 0 11 0 17-1 6 0 11 0 17 0 6-1 11-1 17-1z"/><path fill="#141413" d="M594 481c4-1 8-1 12 0 4 0 8 0 13 0 4 0 8 1 12 1 4 1 8 2 12 2 4 1 8 2 11 4 4 1 8 2 12 4 4 1 7 3 11 5 3 2 7 4 10 6 4 2 7 4 10 7 3 2 7 5 10 7 3 3 5 6 8 9 3 3 6 6 8 9 2 3 5 6 7 9 2 3 4 7 5 10 2 4 3 7 4 11 0 3 1 7 1 10 0 4-1 8-1 11-1 4-2 7-4 11-1 3-3 7-5 10-2 3-4 7-6 10-3 3-5 6-8 9-3 3-6 5-9 8-3 3-6 5-9 7-4 3-7 5-10 7-4 2-7 4-11 6-4 2-8 3-11 5-4 1-8 3-12 4-4 1-8 2-12 3-4 1-8 2-12 3-4 0-8 1-12 1-4 0-8 1-12 1-4 0-8-1-12-1-4 0-8 0-12-1-4 0-8-1-12-2-4 0-8-1-12-2-4-1-8-2-12-4-4-1-7-2-11-4-4-1-7-3-11-5-3-2-7-4-10-6-4-3-7-5-10-7-3-3-6-5-9-8-3-3-6-5-8-8-3-3-6-6-8-9-2-3-4-6-6-9-2-3-4-6-5-10-2-3-3-6-4-9 0-4-1-7-1-11 0-3 0-6 1-10 1-3 2-7 3-10 2-3 3-7 5-10 2-3 4-6 7-9 2-4 4-7 7-9 3-3 6-6 8-9 3-3 6-5 9-8 4-2 7-5 10-7 4-2 7-4 11-6 3-2 7-3 10-5 4-1 8-3 12-4 4-1 7-2 11-3 4-1 8-2 12-2 5-1 9-1 13-2 4 0 8 0 12 0zM580 459c-5 1-9 1-14 2-4 0-9 1-13 2-5 1-9 2-14 3-4 2-9 3-13 5-5 1-9 3-13 5-4 2-9 5-13 7-4 3-7 6-11 8-4 3-7 6-11 10-3 3-6 6-10 9-3 4-6 7-9 11-3 4-6 8-8 12-3 4-5 8-7 12-2 5-4 10-5 15-2 5-2 10-3 15 0 5 1 11 2 16 1 5 2 10 4 14 2 5 5 10 7 14 3 4 6 8 9 12 3 4 6 7 9 10 4 4 7 7 11 10 4 3 8 5 11 8 4 3 8 5 12 7 4 2 8 4 13 6 4 2 8 4 12 6 4 2 9 3 13 5 5 1 9 2 13 4 5 1 9 2 14 2 4 1 9 2 13 2 5 1 9 1 14 1 4 0 9 0 14 0 4 0 9 0 13-1 5 0 9-1 14-1 5-1 9-2 13-3 5-1 9-3 14-4 4-2 8-3 13-5 4-2 8-3 12-5 4-2 8-5 12-7 4-2 8-5 12-8 4-2 7-5 11-8 3-3 7-7 10-10 3-3 6-7 9-11 3-4 6-8 8-12 2-4 5-8 7-13 1-4 3-9 4-14 1-5 2-10 2-15 0-5-1-10-2-14-1-5-3-10-4-15-2-4-5-8-7-12-2-5-5-8-8-12-3-4-6-7-9-11-3-3-7-6-10-9-4-4-7-6-11-9-4-3-7-6-11-8-4-3-8-5-12-7-4-2-9-4-13-6-4-2-9-4-13-5-4-1-9-3-13-4-5-1-9-2-14-2-4-1-9-1-14-2-4 0-9 0-13-1-5 0-9 0-14 1-4 0-9 0-13 0z"/><path fill="#141413" d="M200 996c3 0 8 0 13 1 4 0 8 1 13 2 4 0 8 1 13 2 4 0 9 1 13 1 4 0 9 0 13 0 5 0 9 0 13-1 5 0 9 0 14 0 4 0 8 0 13 0 4 0 8 0 13 0 4 0 8 0 13 0 4 0 9 0 13 1 4 0 9 0 13 0 4 0 9 0 13 0 5 1 9 1 13 1 5 0 9 0 14 0 4 0 8 0 13 0 4 1 8 1 13 1 4 0 8 0 13 0 4 0 9 0 13 1 4 0 9 0 13 0 5 0 9 0 14-1 4 0 9 0 13 0 5 0 9-1 13-1 5 0 9-1 14-1 4-1 8-1 13-2 4 0 8 0 13-1 4 0 8 0 13-1 4 0 8 0 13 0 4-1 9-1 13-1 4 0 9 0 13-1 4 0 9 0 13 0 5 0 9-1 13-1 5 0 9-1 14-1 4 0 8-1 13-1 4 0 8-1 13-1 4-1 8-1 13-1 4-1 8-1 13-1 4 0 8 0 13-1 4 0 8 0 13 0 4 0 8 0 13 0 4 0 8 0 13 0 4 1 8 1 13 1 4 0 8 0 13 0 4 1 9 1 13 1 4 0 9 0 13 0 4 0 9 0 13 0 5 0 9 0 13 0 5 0 9 0 13 0 5 0 9 0 13 0 5 1 9 1 13 1 5 0 9 0 14 0 4 0 8 0 13 0 4 0 8 0 13 0 4 0 8 0 13 0 4 0 9 1 13 1 4 0 8 0 13 0 4 1 8 1 13 1 4 0 8 0 13 1 4 0 9 0 13 0 4 0 9 0 13 0 5 0 10 0 14 0 3 0 3-1 4-2 2 0 3-2 4-3 0-2 0-4 0-5-1-2-2-4-3-5-1-1-2-1-5-2-3 0-8 0-13 0-4-1-8-2-13-2-4-1-8-2-13-3-4 0-8-1-13-1-4-1-8-1-13-1-4-1-9-1-13-1-5 0-9 0-13-1-5 0-9 0-14 0-4 0-8-1-13-1-4 0-8 0-13 0-4-1-8-1-13-1-4 0-9 0-13-1-4 0-9 0-13 0-5 0-9 0-13 0-5 0-9 0-14 0-4 0-8 0-13 0-4 0-9 0-13 0-4 0-9 0-13 0-4 0-9 0-13 0-5 1-9 1-13 1-5 0-9 0-14 0-4 0-8 0-13 0-4 0-9 1-13 1-5 0-9 0-13 0-5 1-9 1-14 1-4 1-8 1-13 1-4 1-9 1-13 1-4 1-9 1-13 1-4 1-9 1-13 1-4 1-9 1-13 1-4 0-9 1-13 1-4 0-9 0-13 0-5 1-9 1-13 1-5 0-9 1-13 1-5 0-9 0-14 0-4 1-8 1-13 1-4 0-9 1-13 1-4 0-9 0-13 0-4 1-9 1-13 1-4 0-8 0-13 0-4 0-8 0-13 0-4 0-8 0-13 0-4 0-8 0-13 0-4-1-8-1-13-1-4 0-9 0-13 0-4 0-9 0-13 0-5 0-9 0-13 0-5 0-9 0-13 0-5 0-9 0-13 0-5 0-9 0-13 0-5 0-9 0-14 0-4 0-8-1-13-1-4 0-9 0-13 0-4 0-9 0-13-1-4 0-9 0-13 0-5 0-9-1-13-1-5 0-9-1-13-1-5 0-9 0-13 1-5 0-9 0-13 1-5 0-9 0-14 1-4 0-10-1-13 0-3 0-4 0-5 1-2 1-3 3-4 5 0 1 0 4 0 5 1 2 2 4 3 5 2 1 3 1 6 2z"/></g><g visibility="hidden"><animate attributeName="visibility" calcMode="discrete" values="hidden;visible;hidden" keyTimes="0;0.4167;0.5" dur="1s" repeatCount="indefinite"/><path fill="#d97757" d="M580 683c5 0 11 0 16 1 6 0 11 0 17 1 6 1 11 2 16 3 6 1 11 2 17 3 5 2 10 3 16 5 5 2 10 4 15 6 5 2 10 4 15 6 5 3 10 5 15 8 5 3 9 6 14 9 4 4 8 7 12 11 4 4 7 9 10 13 3 5 5 10 6 16 1 5 1 11 0 16-1 6-4 11-7 16-2 5-6 9-10 14-3 4-8 8-12 11-5 4-9 7-14 10-5 3-10 6-15 8-5 3-10 5-15 7-6 2-11 4-16 6-6 2-11 3-17 4-5 2-11 3-17 3-5 1-11 2-17 3-5 0-11 0-17 0-5 1-11 1-17 0-5 0-11 0-17-1-5-1-11-1-16-2-6-1-12-2-17-4-6-1-11-3-16-5-6-1-11-3-16-5-6-3-11-5-16-8-5-2-10-5-14-8-5-3-10-7-14-11-4-3-8-7-12-12-3-4-7-9-9-14-3-5-5-10-5-16-1-5 0-11 1-16 2-5 4-10 7-15 3-4 7-9 11-12 4-4 8-8 13-11 4-3 9-6 13-9 5-3 10-5 15-8 5-2 10-4 15-6 5-2 11-4 16-6 5-1 11-3 16-4 5-1 11-2 16-3 6-1 11-2 17-3 5 0 11 0 17-1z"/><path fill="#e3dacc" d="M559 983c5-1 11-1 17-1 5 0 11 0 17 0 5 0 11 0 16-1 6 0 12 0 17 0 6 0 12 0 17 0 6 0 12 1 17 1 6 0 11 0 17 0 6 0 11 0 17 1 6 0 11 0 17 0 6 1 11 1 17 1 6 1 12 1 18 3 6 2 18 5 19 9 1 4-6 12-11 16-4 4-12 4-18 6-6 1-12 2-18 3-6 0-11 1-17 1-6 1-11 1-17 2-6 0-11 0-17 0-6 1-11 1-17 1-6 0-11 1-17 1-6 0-11 0-17 0-6 0-11 0-17 0-6 0-11 0-17 0-6 0-11 0-17 0-6 0-11 0-17-1-6 0-11-1-17-1-6-1-11-1-17-2-6-1-11-1-17-2-5-1-11-2-17-4-5-1-11-2-16-4-6-1-13-3-16-5-4-3-7-8-6-11 2-2 11-3 16-4 6-2 11-2 17-3 5-1 11-1 16-2 6-1 12-1 17-2 6 0 11 0 17-1 6 0 11-1 17-1 6 0 11 0 17 0z"/><path fill="#141413" d="M594 682c4 0 8 0 13 0 4 0 8 0 12 1 4 0 8 0 13 0 4 1 8 1 12 2 4 0 8 1 12 2 4 1 8 2 12 3 4 1 8 3 12 4 4 1 8 3 12 5 3 1 7 3 11 5 3 2 7 4 10 6 4 3 7 5 10 7 4 2 7 5 10 8 3 2 5 5 8 8 2 3 5 5 7 9 1 3 3 6 4 9 1 3 2 7 2 10 0 4-1 7-2 10-1 4-3 7-4 10-2 3-5 6-7 9-2 3-5 6-8 9-3 2-6 5-9 7-3 3-7 5-10 7-4 2-7 4-11 6-4 2-7 3-11 5-4 1-8 3-12 4-4 2-8 3-12 4-4 1-8 2-12 3-4 1-8 2-12 2-4 1-9 2-13 2-4 1-8 1-12 1-4 0-8 0-13 0-4 0-8 0-12 0-4 0-9-1-13-1-4 0-8-1-12-1-4-1-9-1-13-2-4-1-8-2-12-3-4 0-8-2-12-3-4-1-8-2-11-4-4-1-8-3-12-5-3-1-7-3-11-5-3-2-7-4-10-7-3-2-7-4-10-6-3-3-6-5-9-7-3-3-5-6-8-8-2-3-4-6-6-9-2-3-3-6-4-9-1-3-2-6-2-9 0-3 1-6 2-9 1-3 2-6 4-9 1-3 4-6 6-9 2-3 5-6 8-8 3-3 6-5 9-8 3-2 6-5 10-7 3-2 7-4 10-6 4-2 7-4 11-6 4-2 7-3 11-5 4-1 8-2 12-3 4-2 8-3 12-3 4-1 8-2 12-3 4 0 8-1 13-1 4-1 8-1 12-1 4 0 9-1 13-1zM580 661c-5 0-9 0-14 1-4 0-9 1-13 1-5 1-9 1-14 2-4 1-9 2-13 3-5 2-9 3-14 4-4 2-9 4-13 6-4 1-8 4-12 6-4 2-8 5-12 7-4 3-8 5-12 8-4 3-7 6-11 9-3 3-7 7-10 10-3 4-7 8-9 12-3 5-6 10-7 15-2 5-3 10-3 16-1 5 0 11 2 16 1 6 4 11 6 15 3 5 6 9 9 13 3 4 7 7 11 11 4 3 7 6 11 8 4 3 8 5 13 8 4 2 8 4 12 6 4 2 9 4 13 5 4 2 8 3 13 5 4 1 8 3 13 4 4 1 9 2 13 3 5 1 9 2 13 3 5 1 9 1 14 2 4 1 9 1 13 1 5 1 9 1 14 1 4 0 9 0 14 0 4 0 9 0 13 0 5-1 9-1 14-2 4 0 9-1 13-2 5-1 9-2 14-3 4-1 8-2 13-3 4-1 9-3 13-4 4-1 9-3 13-5 4-2 8-4 12-6 5-2 9-4 13-6 4-3 8-5 11-8 4-3 8-6 11-9 4-4 7-7 10-11 3-4 6-8 9-12 2-5 5-9 6-14 2-5 3-11 3-16 0-5-1-10-3-15-1-5-4-10-6-14-3-5-6-9-9-13-3-3-6-7-10-10-3-3-7-6-11-9-4-3-7-5-11-8-4-2-8-4-12-7-4-2-8-4-13-6-4-2-8-4-12-5-5-2-9-3-14-5-4-1-8-2-13-3-4-1-9-2-14-3-4 0-9-1-13-1-5-1-9-1-14-1-4-1-9-1-13-1-5 0-9 0-14 0-4 0-9 1-13 1z"/><path fill="#141413" d="M199 996c3 0 9 1 13 1 5 1 9 2 14 2 4 1 8 2 13 2 4 1 8 2 13 2 4 0 9 0 13 0 4 0 9 0 13 0 5 0 9 0 13 0 5 0 9 0 14 0 4 0 8 0 13 0 4 0 8 0 13 0 4 0 8 1 13 1 4 0 9 0 13 0 4 0 9 1 13 1 5 0 9 0 13 0 5 0 9 1 14 1 4 0 8 0 13 0 4 0 8 0 13 0 4 0 9 0 13 1 4 0 9 0 13 0 5 0 9 0 14 0 4 0 8 0 13-1 4 0 9 0 13 0 5 0 9-1 14-1 4-1 8-1 13-2 4 0 9-1 13-1 4-1 9-1 13-2 4 0 9 0 13-1 4 0 9 0 13-1 4 0 9 0 13-1 4 0 9 0 13 0 5-1 9-1 13-1 5-1 9-1 14-1 4-1 8-1 13-2 4 0 8 0 13-1 4 0 9-1 13-1 4-1 9-1 13-2 4 0 9 0 13-1 4 0 8 0 13 0 4-1 8-1 13-1 4 0 8 0 13 0 4 0 8 0 13 0 4 0 8 1 13 1 4 0 9 0 13 0 4 0 9 0 13 0 4 0 9 0 13 0 4 0 9 1 13 1 5 0 9 0 13 0 5 0 9 0 13 0 5 0 9 0 13 0 5 0 9 0 13 0 5 1 9 1 13 1 5 0 9 0 14 0 4 0 8 0 13 0 4 0 8 0 13 1 4 0 8 0 13 0 4 1 8 1 13 1 4 0 8 1 13 1 4 0 8 1 13 1 4 0 8 0 13 0 4 0 9 0 13 0 5 0 10 1 13 1 3 0 4-1 5-1 2-1 3-3 4-4 0-2 0-4 0-5-1-2-2-4-3-5-1-1-2-1-4-2-3 0-9 0-13-1-5 0-9-1-13-2-5-1-9-2-13-2-5-1-9-2-13-2-5-1-9-1-14-2-4 0-8 0-13 0-4-1-9-1-13-1-5 0-9-1-13-1-5 0-9 0-13-1-5 0-9 0-14 0-4-1-8-1-13-1-4-1-9-1-13-1-4 0-9 0-13 0-5-1-9-1-13-1-5 0-9 0-14 0-4 0-8 0-13 0-4 0-9 0-13 0-4 0-9 1-13 1-5 0-9 0-13 0-5 0-9 0-14 1-4 0-8 0-13 0-4 0-9 0-13 0-4 1-9 1-13 1-5 0-9 1-14 1-4 0-9 1-13 1-4 0-9 1-13 1-4 1-9 1-13 2-5 0-9 0-13 1-5 0-9 1-13 1-5 0-9 1-13 1-5 0-9 1-13 1-5 0-9 0-13 1-5 0-9 0-13 1-5 0-9 0-14 1-4 0-8 0-13 1-4 0-9 0-13 0-4 1-9 1-13 1-4 1-9 1-13 1-4 0-9 1-13 1-4 0-9 0-13 0-4 0-8 0-13 0-4 0-8 0-13 0-4 0-8 0-13 0-4 0-8 0-13 0-4 0-9 0-13 0-4 0-9 0-13 0-5 0-9 0-13 0-5 0-9 0-13 0-5 0-9 0-13 0-5-1-9-1-13-1-5 0-9 0-14 0-4 0-8-1-13-1-4 0-8 0-13 0-4 0-9-1-13-1-4 0-9 0-13-1-4 0-9 0-13-1-4 0-9 0-13-1-4 0-9 0-13 0-5 1-9 1-13 1-5 0-9 1-13 1-5 0-10 0-14 0-3 0-3 0-5 1-1 1-3 3-4 4 0 2 0 4 0 6 1 2 2 4 3 5 2 1 2 1 5 2z"/></g><g visibility="hidden"><animate attributeName="visibility" calcMode="discrete" values="hidden;visible;hidden" keyTimes="0;0.5;0.5833" dur="1s" repeatCount="indefinite"/><path fill="#d97757" d="M573 830c6 0 12 0 17 0 6 0 12 0 18 0 6 1 11 1 17 2 6 1 12 1 18 2 5 1 11 2 17 4 6 1 11 2 17 4 5 1 11 3 17 5 5 2 11 4 16 7 5 2 11 5 16 8 5 3 10 6 15 10 4 4 9 8 13 13 3 5 7 10 9 16 2 6 2 13 2 19-1 6-4 12-7 17-3 5-7 10-12 14-4 4-9 7-14 10-5 4-10 6-15 9-5 3-11 5-16 7-6 2-11 4-17 5-5 2-11 3-17 5-5 1-11 2-17 3-5 1-11 2-17 2-5 1-11 2-17 2-6 1-11 1-17 1-6 0-12 0-17 0-6 0-12 0-18 0-5-1-11-1-17-2-6 0-11-1-17-2-6-1-11-2-17-3-6-1-11-2-17-4-5-1-11-3-16-5-6-2-11-4-17-6-5-2-10-5-15-8-5-2-10-6-15-9-5-4-9-7-13-12-4-5-8-10-10-15-2-6-3-13-2-19 0-6 2-12 5-17 3-6 7-11 11-15 5-4 10-8 14-11 5-4 11-7 16-10 5-2 11-5 16-7 6-2 11-4 17-6 5-2 11-3 17-5 5-1 11-2 17-3 5-2 11-2 17-3 6-1 12-2 17-2 6-1 12-1 18-1z"/><path fill="#e3dacc" d="M564 974c5 0 11 0 16-1 6 0 12 0 17 0 6 0 12 0 17 0 6 0 11 0 17 1 6 0 11 0 17 0 6 0 11 0 17 1 5 0 11 0 17 1 5 0 11 0 17 1 5 0 11 1 16 1 6 1 12 2 17 3 6 0 11 1 17 2 6 1 11 2 17 3 6 2 14 2 17 6 4 3 8 10 6 13-2 4-12 5-18 7-5 2-11 2-17 3-5 1-11 2-17 3-5 0-11 1-16 1-6 1-12 1-17 2-6 0-11 0-17 1-6 0-11 0-17 1-6 0-11 0-17 0-5 0-11 0-17 0-5 0-11 0-16 0-6 0-12 0-17 0-6 0-12 0-17 0-6-1-11-1-17-1-6 0-11 0-17 0-5 0-11 0-17 0-5 0-11-1-17-1-5 0-11 0-16 0-6-1-12-1-17-2-6 0-11 0-17-1-6-1-11-1-17-2-6-1-11-1-17-3-6-1-14-1-18-4-4-4-7-11-6-15 2-4 12-5 18-7 6-2 12-3 17-4 6-1 12-2 17-3 6 0 12-1 17-1 6-1 11-2 17-2 6 0 11-1 17-1 6-1 11-1 17-1 5 0 11-1 17-1 5 0 11 0 17 0z"/><path fill="#141413" d="M587 836c5 0 9 0 13 0 5-1 9-1 13 0 4 0 9 0 13 0 4 0 9 0 13 0 4 1 8 1 12 2 5 0 9 1 13 2 4 0 8 1 12 2 5 1 9 2 13 3 4 2 8 3 12 4 4 2 8 3 12 5 4 1 7 3 11 5 4 2 7 4 11 6 3 2 7 4 10 7 3 2 6 5 8 8 3 2 5 5 7 8 2 3 4 7 4 10 1 3 2 6 1 10 0 3-1 6-3 9-1 3-3 6-6 9-2 3-5 5-8 7-3 3-6 5-9 7-4 2-7 5-11 7-3 2-7 3-11 5-3 2-7 4-11 5-4 2-8 3-12 5-4 1-8 2-12 3-4 2-8 3-12 3-5 1-9 2-13 3-4 0-8 1-12 1-5 1-9 1-13 1-4 1-9 1-13 1-4 0-8 0-13 0-4 0-8 0-12 0-5 0-9 0-13 0-4-1-9-1-13-1-4-1-8-1-13-2-4 0-8-1-12-2-4-1-8-1-13-2-4-1-8-2-12-3-4-1-8-2-12-4-4-1-8-2-12-4-4-1-8-3-11-4-4-2-8-4-11-6-4-2-8-4-11-6-3-2-6-4-9-7-3-2-6-5-8-8-2-2-4-5-6-8-1-3-2-7-2-10 0-3 0-6 1-9 1-3 3-6 5-9 2-3 4-6 7-8 2-3 5-5 8-8 3-2 7-4 10-6 4-2 7-4 11-6 3-2 7-4 11-6 4-1 7-3 11-4 4-2 8-3 12-4 4-1 8-2 12-3 4-1 8-2 13-3 4-1 8-1 12-2 4-1 9-1 13-2 4 0 8 0 13-1 4 0 8 0 12 0zM573 815c-4 0-9 0-13 1-5 0-9 0-14 1-4 0-9 1-13 1-5 1-9 2-14 3-4 1-9 2-13 3-5 1-9 3-14 4-4 2-9 3-13 5-4 2-9 4-13 6-4 2-8 5-12 7-4 3-8 6-12 9-4 3-8 6-11 10-4 3-7 7-10 12-3 5-5 10-7 15-1 5-2 11-1 17 0 5 2 11 4 16 2 5 6 10 9 14 3 4 7 8 11 11 3 3 7 6 11 9 4 3 8 5 13 7 4 2 8 4 12 6 5 2 9 4 13 5 5 2 9 3 13 5 5 1 9 2 14 3 4 1 8 2 13 3 4 1 9 2 13 3 4 1 9 1 13 2 5 1 9 1 14 1 4 1 9 1 13 2 5 0 9 0 14 0 4 0 9 0 13 0 5 0 9 0 14 0 4 0 9 0 13 0 5-1 10-1 14-1 5-1 9-2 14-2 4-1 9-2 13-3 5-1 9-2 14-3 4-1 8-2 13-4 4-1 9-2 13-4 4-1 9-3 13-5 4-1 9-3 13-5 4-2 9-4 13-7 4-2 9-5 13-8 4-4 8-7 12-12 3-4 7-9 9-14 3-6 5-12 5-18 1-6 0-13-2-18-1-6-4-12-7-17-3-4-7-9-11-12-4-4-9-7-13-10-4-3-8-5-12-7-5-3-9-5-13-7-5-2-9-4-13-5-4-2-9-4-13-5-5-2-9-3-13-4-5-2-9-3-14-4-4-1-9-2-13-3-5 0-9-1-14-2-4 0-9-1-13-1-5-1-9-1-14-1-4 0-9 0-13 0-5 0-9 0-14 0-4 0-9 0-13 0-5 0-9 0-14 1z"/><path fill="#141413" d="M199 995c3 0 9 1 13 1 5 1 9 2 14 2 4 1 8 2 13 3 4 0 8 1 13 1 4 0 8 1 13 1 4 0 9 0 13 0 4 1 9 1 13 1 4 0 9 0 13 0 4 1 9 1 13 1 5 0 9 0 14 0 4 0 8 0 13 0 4 0 9 1 13 1 4 0 9 0 13 0 5 0 9 0 13 0 5 0 9 0 14 0 4 0 8 0 13 0 4 0 9 0 13 0 5 0 9 0 14 0 4-1 9-1 13-1 4-1 9-1 13-2 5 0 9 0 13-1 5 0 9 0 13-1 5 0 9 0 13 0 4 0 9-1 13-1 4 0 9 0 13 0 5 0 9 0 13 0 5 0 9-1 14-1 4 0 8 0 13-1 4 0 9 0 13-1 4 0 9 0 13 0 5-1 9-1 13-1 5-1 9-1 13-1 5 0 9-1 14-1 4 0 8-1 13-1 4 0 9-1 13-1 4 0 9-1 13-1 5-1 9-1 13-2 5 0 9-1 13-1 5-1 9-1 13-1 4-1 9-1 13-1 4 0 9-1 13-1 4 0 9 0 13 0 4 0 9 0 13 0 4 0 9 0 13 0 4 0 9 1 13 1 5 0 9 0 13 0 5 0 9 0 13 0 5 0 9 0 13 0 5 0 9 0 14 0 4 0 8 0 13 1 4 0 8 0 13 0 4 0 8 0 13 0 4 1 9 1 13 1 4 0 9 0 13 1 4 0 9 0 13 0 5 0 9 1 13 1 5 0 9 1 13 1 5 0 9 0 13-1 5 0 9 0 13 0 5-1 9-1 14-1 4 0 10 1 13 0 3 0 3 0 5-1 1-1 3-2 3-4 1-1 1-4 1-5-1-2-2-4-3-5-2-1-2-1-5-2-3 0-9-1-13-1-5-1-9-2-13-2-5-1-9-2-13-3-5 0-9-1-14-1-4-1-8-1-13-1-4 0-9 0-13 0-4 0-9 0-13 0-5 0-9 0-13 0-5 0-9 0-14 0-4 0-8-1-13-1-4 0-8 0-13 0-4 0-9 0-13 0-5 0-9 0-13 0-5 0-9 0-14 0-4 0-8 0-13 0-4 0-8 0-13 0-4 0-9 0-13 0-4 0-9 0-13 0-5 0-9 0-13 0-5 0-9 1-14 1-4 0-9 0-13 0-5 1-9 1-14 1-4 0-8 1-13 1-4 1-9 1-13 2-4 1-9 1-13 2-4 0-9 1-13 1-4 1-9 1-13 1-4 1-9 1-13 1-4 1-9 1-13 1-4 1-9 1-13 1-4 0-9 1-13 1-5 0-9 0-13 1-5 0-9 0-13 0-5 1-9 1-13 1-5 0-9 0-13 0-5 0-9 0-13 0-5 0-9 0-14 0-4 0-8 0-13 1-4 0-9 0-13 0-5 1-9 1-13 1-5 0-9 1-13 1-5 1-9 1-13 1-5 0-9 1-13 1-5 0-9 0-13 0-5 0-9 0-13 0-4 0-9 0-13 0-4 0-9 0-13 0-5-1-9-1-13-1-5 0-9 0-13 0-5 0-9 0-13-1-5 0-9 0-13 0-5 0-9-1-13-1-5 0-9-1-13-1-5-1-9-1-14-1-4-1-8-1-13-1-4-1-8-1-13-1-4 0-9-1-13-1-4 0-9 1-13 1-5 0-9 0-13 1-5 0-9 0-13 0-5 0-10 0-13 0-4 0-4 0-6 1-1 1-3 3-3 5-1 1-1 3-1 5 1 2 2 4 3 5 2 1 2 1 5 2z"/></g><g visibility="hidden"><animate attributeName="visibility" calcMode="discrete" values="hidden;visible;hidden" keyTimes="0;0.5833;0.6667" dur="1s" repeatCount="indefinite"/><path fill="#d97757" d="M572 629c6-1 12-1 18-1 7 1 13 2 19 3 6 1 11 4 17 6 5 2 11 6 16 9 5 3 10 7 14 11 4 4 9 8 12 13 4 5 8 9 11 14 3 5 6 10 9 16 2 5 5 10 7 16 2 5 4 11 5 17 2 5 3 11 4 17 1 5 2 11 2 17 1 6 1 12 0 18 0 5-1 11-1 17-1 6-3 11-4 17-1 6-3 11-5 17-2 5-4 10-7 16-2 5-5 10-8 15-3 5-6 10-10 14-3 5-7 9-11 13-4 4-9 8-13 12-5 3-10 7-15 9-5 3-10 5-16 7-5 2-11 4-17 4-6 1-11 2-17 1-6 0-12-1-18-2-5-2-11-3-16-6-5-2-11-5-15-8-5-3-10-7-14-11-5-3-9-8-12-12-4-4-8-9-11-14-3-5-6-10-9-15-2-5-5-10-7-15-2-6-4-11-6-17-2-5-3-11-4-16-2-6-3-12-3-18-1-5-1-11-1-17 0-6 0-12 1-17 0-6 1-12 2-18 1-5 3-11 5-17 2-5 4-11 6-16 3-6 5-11 8-16 3-5 6-10 10-15 3-5 7-9 11-14 4-4 9-8 14-12 4-4 9-7 15-10 5-3 11-5 16-7 6-2 12-4 18-5z"/><path fill="#e3dacc" d="M574 977c6 0 12 0 17 0 6 0 12 0 18 0 5 0 11 0 17 0 6 1 11 1 17 1 6 0 12 1 17 1 6 1 12 1 18 2 6 0 11 1 17 2 6 1 12 2 18 3 6 2 15 3 18 7 3 3 2 11-1 14-3 3-12 4-18 5-6 2-11 2-17 3-6 1-12 1-17 2-6 1-12 1-18 1-5 1-11 1-17 1-6 1-11 1-17 1-6 0-12 0-17 0-6 0-12 0-18 0-5 0-11 0-17 0-6 0-11 0-17 0-6-1-12-1-17-1-6-1-12-1-18-2-5-1-11-1-17-2-5-1-11-2-17-3-6-1-15-2-17-5-3-3-4-11-1-14 3-3 12-4 18-6 5-1 11-2 17-3 6-1 11-2 17-3 6 0 12-1 17-2 6 0 12-1 18-1 5 0 11 0 17-1z"/><path fill="#141413" d="M588 635c4-1 8-1 12-1 4 0 8 0 12 1 4 0 8 1 12 2 4 1 7 2 11 4 4 1 7 3 11 5 3 2 6 5 10 7 3 2 6 5 9 8 3 3 5 6 8 9 3 3 5 7 7 10 3 3 5 7 7 11 2 3 4 7 5 11 2 3 4 7 5 11 1 4 3 8 4 12 1 4 2 8 3 12 0 4 1 8 2 12 0 4 1 8 1 12 0 4 0 8 0 12 0 4 0 8-1 12 0 4-1 8-2 12-1 4-2 8-3 12-1 4-2 8-4 12-1 4-2 8-4 11-2 4-3 8-5 12-2 4-4 7-6 11-2 3-4 7-6 10-3 3-5 7-8 10-3 3-5 6-8 8-3 3-7 5-10 8-3 2-6 4-10 6-4 2-7 3-11 5-4 1-7 2-11 3-4 1-8 1-12 1-4 1-8 1-12 0-4 0-8-1-11-2-4-1-8-2-12-3-3-2-7-3-10-5-4-2-7-4-10-7-4-2-7-4-10-7-3-3-5-6-8-9-3-3-5-6-8-9-2-3-5-6-7-10-2-3-4-7-6-10-2-4-3-8-5-12-1-3-3-7-4-11-2-4-3-8-4-12-1-4-2-8-2-12-1-4-2-8-2-12-1-4-1-8-1-12 0-4 0-8 1-12 0-4 1-8 1-12 1-4 2-8 3-12 1-4 2-8 3-12 1-4 2-8 4-11 1-4 2-8 4-12 2-4 3-7 5-11 2-3 4-7 6-10 3-4 5-7 7-10 3-3 6-6 8-9 3-3 6-5 9-8 3-2 7-5 10-7 3-2 7-4 11-5 3-2 7-3 11-5 4-1 7-2 11-2zM571 616c-5 2-10 3-14 5-5 2-9 4-13 7-5 2-9 5-13 8-4 3-7 6-11 9-3 4-7 7-10 11-3 3-6 7-9 11-2 4-5 8-7 13-2 4-4 8-6 12-2 5-4 9-5 13-2 5-3 9-5 14-1 4-2 9-3 13-1 5-2 9-2 14-1 4-1 9-2 14 0 4 0 9 0 14 0 4 1 9 1 14 1 4 1 9 2 14 1 4 2 9 3 13 1 5 3 9 4 13 2 5 4 9 5 13 2 5 4 9 6 13 3 4 5 8 7 12 3 4 6 8 9 12 2 3 5 7 9 10 3 4 6 7 10 10 3 4 7 7 11 9 4 3 8 6 12 8 4 3 9 5 14 6 4 2 9 4 14 5 4 1 9 2 14 2 5 1 10 1 15 0 5 0 10 0 15-1 5-1 10-3 14-4 5-2 10-4 14-6 5-2 9-5 13-8 4-3 8-6 11-9 4-3 7-7 11-10 3-4 6-8 9-11 3-4 5-8 8-12 3-4 5-8 7-12 3-4 5-8 7-12 2-4 4-9 6-13 2-4 3-9 5-13 1-5 3-9 4-14 1-5 1-10 2-14 1-5 1-10 1-15 0-5 0-10-1-15 0-4-1-9-2-14-1-5-2-9-3-14-1-4-3-9-5-13-1-5-3-9-5-13-2-4-4-9-6-13-2-4-4-8-6-12-3-4-5-8-8-12-3-4-5-8-8-12-4-3-7-7-10-10-4-4-7-7-11-10-4-3-8-6-12-9-5-2-9-4-13-6-5-2-10-4-15-5-4-1-9-2-14-3-5-1-10-1-15-1-5 0-10 1-15 1-5 1-10 2-14 3z"/><path fill="#141413" d="M200 995c3 0 9 0 13 0 4 1 9 1 13 2 5 0 9 1 13 1 5 1 9 1 14 1 4 0 8 0 13 0 4 0 8 0 13 0 4 0 8 0 13 0 4 0 8 0 13 0 4 0 8 0 13 0 4 0 9 0 13 0 4 0 9 0 13 0 5 0 9 0 13 0 5 0 9 0 13 0 5 0 9 0 13 0 5 0 9 0 14 0 4 0 8 0 13 0 4 0 9 0 13 0 5 0 9 0 13 0 5-1 9-1 14-1 4 0 8-1 13-1 4 0 9-1 13-1 4 0 8 0 13 0 4 0 8 0 13 0 4 0 8 0 13 0 4 0 8 0 13 0 4 0 8 0 13 0 4 0 9 1 13 1 4 0 9 0 13 0 5 0 9-1 13-1 5 0 9 0 14 0 4 0 8 0 13 0 4 0 8 0 13 0 4 0 9 0 13 0 4 0 9 0 13 0 5 0 9 0 13-1 5 0 9 0 14 0 4 0 9-1 13-1 4 0 9-1 13-1 4 0 9-1 13-1 4 0 9 0 13 0 4 0 8 0 13 0 4 0 8 0 13 0 4 0 8 0 13 0 4 0 9 1 13 1 4 0 9 0 13 0 4 0 9 0 13 0 5 0 9 0 13 0 5 0 9 0 14 0 4 0 8 0 13 0 4 0 8 0 13 0 4 0 9 0 13 0 4 0 9 0 13 0 4 0 9 0 13 0 5 0 9 0 13 0 5 1 9 1 14 1 4 0 8 0 13 0 4 0 8 0 13 0 4-1 8-1 13-1 4-1 8-1 13-2 4 0 8-1 13-1 4 0 10 0 13-1 3 0 4 0 5-1 1-1 3-3 3-4 1-2 1-4 0-6 0-1-2-3-3-4-1-1-2-1-5-2-3 0-9 0-13 0-4-1-9-1-13-2-5 0-9-1-13-2-5 0-9 0-13 0-5-1-9 0-14 0-4 0-8 0-13 0-4 0-9 1-13 1-4 0-9 0-13 0-4 0-9 1-13 1-4 0-9 0-13 0-5 0-9 0-13 0-5 0-9 0-13 0-5 0-9 0-14 0-4 0-8 0-13 0-4 0-8 0-13 0-4 0-8 0-13 1-4 0-8 0-13 0-4 0-9 0-13-1-4 0-9 0-13 0-5 0-9 0-13 0-5 0-9 0-14 0-4 1-9 1-13 1-4 0-9 0-13 1-5 0-9 0-13 1-5 0-9 0-13 1-5 0-9 0-13 0-5 1-9 1-13 1-5 0-9 0-13 0-5 0-9 0-13 0-5 0-9 0-14 0-4 0-8 0-13 0-4 0-8 0-13 0-4 0-8 0-13 0-4 0-8 0-13 0-4 0-8 0-13 0-4-1-8-1-13-1-4 0-9 0-13 0-4-1-9-1-13-1-5 0-9 0-14 1-4 0-9 0-13 0-4 0-9 0-13 1-5 0-9 0-13 0-5 0-9 1-13 1-5 0-9 0-13 0-4 0-9 0-13 0-4 0-9-1-13-1-5 0-9 0-13 0-5 0-9 0-13 0-5 0-9 0-14 0-4 0-8 0-13 0-4 0-8 0-13-1-4 0-8 0-13 0-4 0-8 0-13-1-4 0-9 0-13 0-4 0-9-1-13-1-5 0-9 0-13 0-5 0-9 0-14 0-4 1-8 1-13 2-4 0-8 1-13 1-4 1-9 1-13 2-4 0-10 0-13 0-3 0-4 1-5 2-2 1-3 2-3 4-1 2-1 4 0 6 0 1 1 3 3 4 1 1 2 1 5 2z"/></g><g visibility="hidden"><animate attributeName="visibility" calcMode="discrete" values="hidden;visible;hidden" keyTimes="0;0.6667;0.75" dur="1s" repeatCount="indefinite"/><path fill="#d97757" d="M579 495c6 0 12 0 18 1 6 0 12 1 18 3 5 2 11 4 16 6 6 3 11 6 16 9 4 4 9 7 13 11 5 4 9 9 13 13 3 5 7 10 10 15 3 5 6 10 8 15 3 6 5 11 7 17 2 5 3 11 5 17 1 5 2 11 3 17 1 6 1 12 1 17 0 6 0 12 0 18-1 6-1 12-2 17-1 6-3 12-4 17-2 6-4 12-6 17-2 5-5 11-8 16-3 5-6 10-9 14-3 5-7 10-11 14-4 4-8 8-12 12-5 4-9 7-14 11-5 3-10 5-15 8-5 2-11 4-16 5-6 2-12 3-18 3-5 1-11 0-17 0-5-1-11-2-17-4-5-2-10-4-16-6-5-3-10-6-14-9-5-4-10-7-14-11-4-4-8-8-12-12-4-5-7-9-10-14-4-5-7-10-9-15-3-5-5-11-7-16-3-6-4-11-6-17-1-5-2-11-3-17-1-6-1-12-2-17 0-6 0-12 1-18 0-6 1-11 2-17 1-6 3-12 4-17 2-6 4-11 6-17 2-5 4-10 7-16 2-5 5-10 8-15 4-5 7-9 11-14 4-4 8-8 12-12 4-4 9-8 14-11 5-4 10-7 15-9 5-2 11-4 17-6 5-1 11-2 17-3z"/><path fill="#e3dacc" d="M575 986c5 0 11 0 17 0 5 0 11 0 17 0 6 0 11 0 17 1 6 0 12 0 17 1 6 0 12 1 17 1 6 1 12 2 17 2 6 1 11 2 16 3 5 1 14 2 15 4 1 2-4 5-8 6-3 2-10 3-15 4-5 1-11 2-17 2-5 1-11 1-17 2-5 0-11 1-17 1-6 0-11 1-17 1-6 0-12 0-17 0-6 0-12 0-18-1-5 0-11 0-17 0-6-1-11-1-17-2-6 0-11-1-17-1-6-1-11-2-16-3-6-1-12-1-16-3-4-1-8-5-6-6 1-2 9-3 14-4 5-1 11-2 16-3 6-1 12-2 17-2 6-1 12-1 17-2 6 0 12 0 18-1z"/><path fill="#141413" d="M594 501c4 0 8 0 12 0 3 0 7 1 11 2 4 0 7 2 11 3 3 1 7 3 10 5 4 2 7 4 10 6 3 2 6 4 9 7 3 3 6 5 9 8 3 3 6 6 8 9 3 3 5 6 8 9 2 3 4 7 6 10 2 4 4 7 5 11 2 4 4 7 5 11 1 4 2 8 3 12 1 4 2 8 3 12 1 4 1 8 2 12 0 4 0 8 0 12 0 4 0 8 0 12 0 4 0 8-1 12 0 4-1 8-2 12-1 4-2 8-3 12-1 4-3 8-4 12-1 4-3 7-5 11-1 4-3 8-5 11-2 4-4 7-6 11-2 3-5 7-7 10-3 3-5 6-8 9-3 3-6 6-9 8-3 3-7 5-10 7-4 2-7 4-11 6-4 1-8 2-11 3-4 1-8 1-12 2-4 0-8 0-12 0-4-1-8-1-11-2-4-1-8-2-12-3-3-1-7-3-11-4-3-2-7-3-10-5-4-2-7-4-10-7-3-2-7-4-10-7-3-3-6-5-8-8-3-3-6-6-8-9-3-3-5-7-7-10-3-4-5-7-7-11-2-3-3-7-5-11-1-4-3-8-4-12-1-4-2-8-3-12-1-4-1-8-2-12 0-4-1-8-1-13 0-4 0-8 0-12 1-4 1-8 2-12 1-4 1-8 2-12 1-4 2-8 4-12 1-4 2-8 3-12 2-3 3-7 5-11 2-3 4-7 6-10 2-4 4-7 6-10 3-4 5-7 8-10 2-3 5-6 7-9 3-3 6-5 9-8 3-3 6-5 9-7 3-3 6-5 10-6 3-2 7-4 10-5 4-2 7-3 11-3 4-1 8-2 11-2zM578 479c-5 1-9 2-14 4-4 2-9 4-13 6-5 2-9 4-13 7-4 2-8 5-11 8-4 3-8 6-11 10-3 3-7 7-10 10-3 4-6 7-8 11-3 4-6 8-8 12-3 4-5 9-7 13-2 4-4 9-5 13-2 5-3 10-4 14-1 5-2 9-3 14 0 5-1 9-1 14 0 5-1 10-1 14 0 5 1 10 1 14 0 5 1 10 1 14 1 5 2 10 3 14 1 5 2 9 3 14 1 5 3 9 4 13 2 5 4 9 5 14 2 4 4 8 7 13 2 4 4 8 7 12 3 4 6 8 9 12 3 4 6 7 10 11 3 3 7 6 11 9 4 3 8 5 13 8 4 2 8 5 13 6 5 2 9 4 14 5 5 1 10 2 15 3 5 1 10 1 15 1 5 0 10-1 15-2 5 0 9-2 14-3 5-2 10-3 14-5 5-2 9-5 13-7 4-3 8-6 12-9 4-3 8-6 11-9 3-4 7-7 10-11 3-3 6-7 8-11 3-4 6-8 8-11 3-4 5-8 7-12 3-5 5-9 7-13 1-4 3-9 5-13 1-5 3-9 4-14 1-5 2-9 2-14 1-5 1-9 2-14 0-5 0-10 0-14 0-5 0-10-1-15 0-4-1-9-2-14 0-4-1-9-3-14-1-4-2-9-4-13-1-5-3-9-5-14-2-4-4-8-6-13-3-4-5-8-8-12-3-4-6-7-9-11-3-4-6-7-10-10-3-4-7-7-10-10-4-3-8-6-12-8-4-3-8-5-13-7-4-2-8-4-13-6-5-1-9-3-14-4-5-1-10-2-15-2-4 0-9 0-14 0-5 0-10 1-15 2z"/><path fill="#141413" d="M200 993c3 0 9 0 13 1 4 0 9 1 13 2 5 0 9 1 13 1 5 1 9 1 14 1 4 0 8 0 13 0 4 0 8 0 13 0 4 0 9 0 13 0 4 0 9 0 13 0 4 0 9-1 13-1 5 0 9 0 13 0 5 0 9 0 13 0 5-1 9-1 14-1 4 0 8 0 13 0 4 0 8 0 13 0 4 0 8 0 13 0 4 0 8 0 13 0 4 0 8 0 13 0 4 0 8 0 13 0 4 0 9 0 13 0 4 0 9 0 13-1 5 0 9 0 13 0 5 0 9 0 13 0 5 0 9 0 14 0 4 0 8 0 13 0 4 0 8 0 13 0 4 0 9 0 13 1 4 0 9 0 13 0 5 0 9 0 13 1 5 0 9 0 13 0 5 0 9 0 14 0 4 0 8 0 13 1 4 0 8 0 12 0 5 0 9 0 13 0 5 0 9 1 13 1 5 0 9 0 13 0 5 1 9 1 14 1 4 0 9 0 13-1 5 0 9 0 13 0 5 0 9-1 14-1 4 0 8 0 13-1 4 0 9 0 13 0 4 0 9-1 13-1 4 0 9 0 13 0 4 0 9 0 13 0 5 0 9 0 13 0 5 0 9 0 13 0 5-1 9-1 14-1 4 0 8 0 13 0 4 0 8 0 13 0 4 0 9 0 13 0 4 0 9-1 13-1 4 0 9 0 13 0 4 0 9 0 13 0 5 0 9 0 13 0 5 0 9 0 13 0 5 0 9 0 14 0 4 0 8 0 13-1 4 0 8 0 13-1 4 0 8-1 13-1 4 0 9-1 13-1 4 0 10 0 13-1 3 0 3 0 4-1 1-1 2-2 3-4 0-1 0-3 0-4-1-1-2-3-3-4-1 0-1-1-4-1-3 0-9 0-13-1-5 0-9 0-13-1-5 0-9-1-13-1-5 0-9 0-14 0-4-1-8 0-13 0-4 0-8 0-13 0-4 0-9 0-13 0-4 0-9 0-13 0-4 0-9 0-13 0-5 0-9 0-13 0-5 0-9 1-13 1-5 0-9 0-14 0-4 0-8 0-13 0-4 0-8 0-13 0-4 0-9 1-13 1-4 0-9 0-13 0-4 0-9 0-13 0-4 0-9 0-13 0-5 0-9 0-13 0-5 0-9 1-14 1-4 0-8 0-13 0-4 0-8 0-13 0-4 0-8-1-13-1-4 0-8 0-13 0-4-1-8-1-12-1-5 0-9-1-13-1-5 0-9-1-14-1-4 0-8 0-13 0-4-1-9-1-13-1-5 0-9 0-13 0-5 1-9 1-14 1-4 0-8 0-13 1-4 0-9 0-13 1-4 0-9 0-13 0-4 0-9 0-13 1-4 0-9 0-13 0-4-1-9-1-13-1-5 0-9 0-13 0-5 0-9 0-13 0-5 0-9 0-14 0-4 0-8 0-13-1-4 0-8 0-13 0-4 0-8 0-13-1-4 0-8 0-13 0-4 0-9 0-13 0-4 0-9-1-13-1-5 0-9 0-13 0-5 0-9 0-14 1-4 0-8 0-13 0-4 0-9 0-13 0-4 0-9 0-13 0-4 0-9 0-13 0-4 0-9 0-13 0-5 0-9 0-13 0-5 0-9 0-13 0-5 0-9 0-14 0-4 0-8 0-13 1-4 0-8 0-13 1-4 0-8 1-13 2-4 0-8 1-13 1-4 0-10 0-13 1-3 0-3 0-5 1-1 1-2 3-3 4 0 2 0 4 0 5 1 2 2 3 3 4 1 1 2 1 5 2z"/></g><g visibility="hidden"><animate attributeName="visibility" calcMode="discrete" values="hidden;visible;hidden" keyTimes="0;0.75;0.8333" dur="1s" repeatCount="indefinite"/><path fill="#d97757" d="M579 352c6 0 12 0 18 0 6 1 12 2 17 3 6 2 12 4 17 6 6 2 11 5 16 8 5 3 10 6 15 10 4 3 8 8 12 12 4 4 8 9 11 14 4 4 7 9 10 15 3 5 5 10 7 16 2 5 4 11 6 16 1 6 2 12 3 17 1 6 2 12 2 18 0 6 0 12 0 17-1 6-2 12-3 18-1 5-2 11-4 17-2 5-4 11-7 16-2 5-5 10-8 15-3 5-7 10-10 14-4 4-8 9-12 13-4 4-9 8-13 11-5 3-10 7-14 10-5 2-11 5-16 7-5 2-11 4-17 5-5 1-11 2-17 2-5 0-11 0-17 0-5-1-11-2-17-3-5-2-11-4-16-6-5-2-10-5-15-8-5-3-10-6-14-10-5-3-9-7-13-11-4-4-8-9-11-13-4-5-7-10-10-15-3-5-6-10-8-15-2-5-4-11-6-17-1-5-3-11-4-17-1-5-1-11-1-17-1-6 0-12 0-17 1-6 2-12 3-18 1-5 2-11 4-16 2-6 4-11 6-17 3-5 5-10 8-15 3-5 6-10 10-15 3-4 7-9 11-13 4-4 8-8 13-12 5-3 9-7 14-10 5-2 11-5 16-7 6-2 11-4 17-5 6-2 12-3 17-3z"/><path fill="#e3dacc" d="M579 988c5-1 11-1 17-1 5 0 11 0 16 1 6 0 12 0 17 0 6 1 11 1 17 2 5 1 11 1 16 2 6 1 11 2 16 3 4 1 12 3 12 5 0 2-7 4-12 5-4 2-10 2-15 3-6 1-11 2-17 2-5 1-11 1-16 2-6 0-12 0-17 0-6 1-11 1-17 0-6 0-11 0-17 0-5 0-11-1-17-1-5-1-11-1-16-2-6-1-11-1-16-2-5-1-12-2-15-4-2-1-3-5 0-6 2-2 9-3 14-4 6-1 11-2 16-3 6 0 11-1 17-1 6-1 11-1 17-1z"/><path fill="#141413" d="M594 358c4 0 8 0 12 0 4 0 7 1 11 1 4 1 8 2 11 3 4 2 8 3 11 5 4 1 7 3 10 5 4 2 7 4 10 7 3 2 6 5 9 7 3 3 6 5 9 8 3 3 5 6 8 9 2 3 5 6 7 10 2 3 4 6 6 10 2 3 3 7 5 11 1 3 3 7 4 11 1 4 2 8 3 12 0 4 1 8 1 12 1 4 1 8 1 12 0 4 0 8 0 12 0 4-1 8-1 12-1 3-2 7-3 11-1 4-2 8-3 12-1 4-3 7-4 11-2 4-4 7-6 11-1 4-3 7-6 11-2 3-4 7-6 10-3 3-5 6-8 9-3 3-6 6-9 9-3 3-6 5-9 7-3 3-7 5-10 7-4 2-8 3-12 4-3 2-7 3-11 3-4 1-8 2-12 2-4 0-8 0-12 0-4-1-8-1-12-2-3-1-7-2-11-3-4-1-8-2-11-3-4-2-8-3-11-5-4-2-7-4-11-6-3-2-6-4-9-6-4-3-7-5-10-8-3-2-5-5-8-8-3-3-5-6-8-10-2-3-5-6-7-10-2-3-4-7-5-11-2-3-4-7-5-11-1-4-2-8-3-12-1-4-2-8-3-12 0-4 0-8-1-12 0-4 0-8 1-13 0-4 1-8 1-12 1-4 2-8 3-12 1-3 2-7 3-11 2-4 3-8 5-11 1-4 3-7 5-11 2-3 4-7 6-10 2-3 5-6 7-9 3-4 5-7 8-9 3-3 5-6 8-9 3-2 6-5 9-7 3-3 7-5 10-7 3-2 7-4 10-6 3-1 7-3 11-4 3-1 7-2 11-3 4 0 7-1 11-1zM579 336c-5 1-10 2-14 3-5 2-10 3-14 5-4 2-9 4-13 6-4 3-8 5-12 8-4 3-7 6-11 9-4 3-7 6-10 9-4 4-7 7-10 11-3 3-6 7-8 11-3 4-5 8-8 13-2 4-4 8-6 13-1 4-3 9-4 13-1 5-2 10-3 14-1 5-1 10-2 15 0 4 0 9 0 14 0 4 0 9 0 14 1 5 1 9 2 14 0 5 1 9 2 14 2 4 3 9 4 14 2 4 3 8 5 13 2 4 4 9 6 13 2 4 5 8 7 12 3 4 5 8 8 12 3 4 6 8 10 11 3 4 7 7 10 10 4 3 8 6 12 9 4 2 9 5 13 7 5 2 9 4 14 6 4 1 9 3 14 4 4 1 9 2 14 2 5 1 10 1 15 1 5 0 10-1 14-2 5 0 10-1 15-3 4-1 9-2 14-4 4-2 9-4 13-6 4-3 8-5 12-8 4-3 8-6 12-9 3-3 7-6 10-9 3-4 6-7 9-11 3-3 6-7 9-11 3-4 5-7 8-11 2-4 5-9 7-13 2-4 4-8 6-13 1-4 3-9 4-13 1-5 2-10 3-14 1-5 1-10 2-15 0-4 0-9 0-14 0-5-1-10-1-14-1-5-1-10-2-14-1-5-2-10-4-14-1-5-2-9-4-14-2-4-4-9-6-13-2-4-5-9-7-13-3-4-6-8-9-11-3-4-6-7-10-11-3-3-6-6-10-9-4-4-7-6-11-9-4-3-8-5-12-8-4-2-9-4-13-6-4-2-9-3-13-5-5-1-10-2-14-3-5-1-10-2-15-2-4 0-9 0-14 0-5 0-10 1-14 2z"/><path fill="#141413" d="M200 993c3 0 9 0 13 1 4 0 9 1 13 2 5 0 9 1 13 1 5 1 9 1 14 1 4 0 8 0 13 0 4 0 8 0 13 0 4 0 9 0 13 0 4 0 9 0 13 0 4 0 9-1 13-1 5 0 9 0 13 0 5 0 9 0 13 0 5-1 9-1 14-1 4 0 8 0 13 0 4 0 8 0 13 0 4 0 8 0 13 0 4 0 8 0 13 0 4 0 8 0 13 0 4 0 8 0 13 0 4 0 9 0 13 0 4 0 9 0 13-1 5 0 9 0 13 0 5 0 9 0 13 0 5 0 9 0 14 0 4 0 8 0 13 0 4 0 8 0 13 0 4 0 9 0 13 1 4 0 9 0 13 0 5 0 9 0 13 1 5 0 9 0 13 0 5 0 9 0 14 0 4 0 8 0 13 1 4 0 8 0 12 0 5 0 9 0 13 0 5 0 9 1 13 1 5 0 9 0 13 0 5 1 9 1 14 1 4 0 9 0 13-1 5 0 9 0 13 0 5 0 9-1 14-1 4 0 8 0 13-1 4 0 9 0 13 0 4 0 9-1 13-1 4 0 9 0 13 0 4 0 9 0 13 0 5 0 9 0 13 0 5 0 9 0 13 0 5-1 9-1 14-1 4 0 8 0 13 0 4 0 8 0 13 0 4 0 9 0 13 0 4 0 9-1 13-1 4 0 9 0 13 0 4 0 9 0 13 0 5 0 9 0 13 0 5 0 9 0 13 0 5 0 9 0 14 0 4 0 8 0 13-1 4 0 8 0 13-1 4 0 8-1 13-1 4 0 9-1 13-1 4 0 10 0 13-1 3 0 3 0 4-1 1-1 2-2 3-4 0-1 0-3 0-4-1-1-2-3-3-4-1 0-1-1-4-1-3 0-9 0-13-1-5 0-9 0-13-1-5 0-9-1-13-1-5 0-9 0-14 0-4-1-8 0-13 0-4 0-8 0-13 0-4 0-9 0-13 0-4 0-9 0-13 0-4 0-9 0-13 0-5 0-9 0-13 0-5 0-9 1-13 1-5 0-9 0-14 0-4 0-8 0-13 0-4 0-8 0-13 0-4 0-9 1-13 1-4 0-9 0-13 0-4 0-9 0-13 0-4 0-9 0-13 0-5 0-9 0-13 0-5 0-9 1-14 1-4 0-8 0-13 0-4 0-8 0-13 0-4 0-8-1-13-1-4 0-8 0-13 0-4-1-8-1-12-1-5 0-9-1-13-1-5 0-9-1-14-1-4 0-8 0-13 0-4-1-9-1-13-1-5 0-9 0-13 0-5 1-9 1-14 1-4 0-8 0-13 1-4 0-9 0-13 1-4 0-9 0-13 0-4 0-9 0-13 1-4 0-9 0-13 0-4-1-9-1-13-1-5 0-9 0-13 0-5 0-9 0-13 0-5 0-9 0-14 0-4 0-8 0-13-1-4 0-8 0-13 0-4 0-8 0-13-1-4 0-8 0-13 0-4 0-9 0-13 0-4 0-9-1-13-1-5 0-9 0-13 0-5 0-9 0-14 1-4 0-8 0-13 0-4 0-9 0-13 0-4 0-9 0-13 0-4 0-9 0-13 0-4 0-9 0-13 0-5 0-9 0-13 0-5 0-9 0-13 0-5 0-9 0-14 0-4 0-8 0-13 1-4 0-8 0-13 1-4 0-8 1-13 2-4 0-8 1-13 1-4 0-10 0-13 1-3 0-3 0-5 1-1 1-2 3-3 4 0 2 0 4 0 5 1 2 2 3 3 4 1 1 2 1 5 2z"/></g><g visibility="hidden"><animate attributeName="visibility" calcMode="discrete" values="hidden;visible;hidden" keyTimes="0;0.8333;0.9167" dur="1s" repeatCount="indefinite"/><path fill="#d97757" d="M580 256c5 0 11 0 17 1 5 0 11 1 16 2 6 1 11 3 16 5 6 2 11 4 16 7 5 3 9 6 14 9 5 3 9 7 13 11 4 4 8 8 11 12 4 5 7 10 10 14 3 5 6 10 8 16 2 5 4 10 5 16 2 5 3 10 4 16 1 6 1 11 2 17 0 5 0 11-1 17 0 5-1 11-2 16-1 6-3 11-4 17-2 5-4 10-6 16-3 5-5 10-8 15-3 5-6 9-10 14-3 4-7 8-11 12-4 4-9 8-13 11-5 3-10 6-15 9-5 3-11 5-16 7-5 2-11 3-16 5-6 1-12 2-18 2-5 0-11 0-17 0-5-1-11-2-17-3-5-1-11-3-16-5-6-2-11-5-16-7-5-3-10-6-14-10-5-3-9-7-13-11-4-5-8-9-11-14-3-4-7-9-9-14-3-5-6-10-8-15-2-5-4-11-6-16-1-5-3-11-3-17-1-5-2-11-2-16 0-6 0-12 0-17 1-6 2-12 3-17 1-6 3-11 4-16 2-6 4-11 7-16 2-5 5-10 8-15 3-4 7-9 10-13 4-4 8-8 12-12 4-4 8-7 13-11 5-3 9-6 14-8 5-3 10-5 16-7 5-2 10-4 16-5 5-1 11-1 17-2z"/><path fill="#e3dacc" d="M582 986c5-1 11-1 16-1 6 0 12 0 17 0 6 0 11 0 17 1 5 0 11 0 17 1 5 0 11 1 17 3 5 2 15 5 16 8 0 4-8 9-13 12-5 2-11 2-17 3-6 1-11 2-17 2-5 1-11 1-17 1-5 1-11 1-16 1-6 0-12 0-17 0-6-1-11-1-17-1-6-1-11-1-17-2-5-1-11-2-17-4-5-2-15-5-15-8 0-3 8-8 13-11 4-2 11-2 16-3 6 0 11-1 17-1 6-1 11-1 17-1z"/><path fill="#141413" d="M594 258c4 0 8 0 12 0 4 1 8 1 12 1 3 1 7 1 11 2 4 1 8 2 11 3 4 2 8 3 11 5 4 1 7 3 10 5 4 3 7 5 10 7 3 3 6 5 9 8 3 3 5 6 8 9 2 3 4 7 7 10 2 3 4 7 6 10 2 4 4 7 5 11 2 4 3 7 5 11 1 4 2 8 3 12 1 3 2 7 2 11 1 4 1 8 1 12 0 4 0 8 0 12 0 4-1 8-1 12-1 4-2 8-3 12-1 4-2 8-3 12-2 4-3 7-5 11-2 3-4 7-6 10-3 3-5 7-8 10-2 3-5 6-8 8-2 3-5 6-8 8-3 3-6 5-9 8-4 2-7 4-10 6-4 2-7 4-11 5-3 2-7 3-10 4-4 2-8 3-11 3-4 1-8 2-12 2-4 0-8 0-11 0-4 0-8 0-12-1-4 0-8-1-11-2-4-1-8-2-12-3-3-1-7-3-10-5-4-1-7-3-10-5-4-2-7-4-10-7-3-2-6-4-9-7-2-3-5-5-8-8-2-3-4-6-7-9-2-4-4-7-6-10-2-3-4-7-6-10-1-4-3-7-4-11-2-3-3-7-4-11-1-3-2-7-2-11-1-4-1-7-1-11-1-4-1-8-1-12 1-4 1-7 2-11 0-4 1-8 2-12 1-3 2-7 3-11 1-3 2-7 4-11 1-3 3-7 5-10 2-3 3-7 5-10 2-3 5-7 7-10 2-3 5-6 7-8 3-3 5-6 8-8 3-3 6-5 9-7 3-3 7-5 10-7 3-1 7-3 10-4 4-2 8-3 11-4 4-1 8-2 12-2 4-1 7-1 11-2zM579 236c-5 0-9 1-14 2-4 1-9 3-13 4-5 2-9 4-14 6-4 2-8 4-12 7-4 2-8 5-12 8-4 3-7 6-11 10-3 3-6 7-9 11-3 3-6 7-8 11-3 4-5 8-7 13-2 4-4 8-5 12-2 5-4 9-5 14-1 4-2 9-3 13-1 5-1 9-2 14 0 4 0 9 0 14 0 4 0 9 0 14 1 4 1 9 2 13 1 5 2 9 3 14 1 4 3 9 4 13 2 4 4 8 6 13 2 4 4 8 7 11 2 4 5 8 8 12 3 3 5 7 9 10 3 3 6 6 9 9 4 3 7 6 11 9 4 3 7 5 11 8 4 2 8 4 12 6 4 2 9 4 13 5 4 2 9 3 13 5 4 1 9 2 13 3 5 1 10 1 14 2 5 0 10 1 14 0 5 0 10 0 15-1 5 0 9-1 14-3 5-1 9-3 14-4 4-2 9-5 13-7 4-2 8-5 12-8 4-3 8-6 11-9 4-3 7-7 10-11 3-3 6-7 9-11 2-4 5-8 7-12 2-4 4-9 6-13 2-4 4-9 5-13 2-5 3-9 4-14 1-4 2-9 3-13 0-5 1-10 1-14 1-5 1-10 1-14-1-5-1-10-2-14 0-5-1-9-2-14-1-5-2-9-4-13-1-5-3-9-4-14-2-4-4-8-6-12-3-4-5-8-7-12-3-4-6-8-9-11-3-4-6-7-9-11-3-3-7-6-10-9-4-4-8-6-11-9-4-3-8-5-13-7-4-3-8-5-13-6-4-2-9-4-13-5-5-1-9-2-14-3-5 0-9-1-14-1-5 0-9 0-14 0-5 0-9 1-14 2z"/><path fill="#141413" d="M200 995c3 0 8 0 13 1 4 0 9 1 13 2 4 0 9 1 13 2 5 0 9 0 13 1 5 0 9 0 14 0 4 0 8 0 13 0 4 0 8 0 13 0 4 0 9 0 13 0 4 0 9 0 13 0 4-1 9-1 13-1 5 0 9 0 13 0 5-1 9-1 13-1 5 0 9-1 14-1 4 0 8 0 13 0 4 0 8 0 13 0 4 0 8 0 13 0 4 0 8 1 13 1 4 0 9 0 13 0 5 0 9 0 14-1 4 0 8 0 13 0 4 0 9 0 13 0 4-1 9-1 13-1 4 0 9 0 13 0 4-1 9-1 13-1 4 0 9 0 13 0 4 0 9 0 13 0 4 0 9 0 13 0 4 1 9 1 13 1 4 0 9 0 13 0 5 0 9 0 13 0 5 0 9 0 14 0 4 0 8 0 13 0 4 0 9 0 13 0 4 0 9 0 13 0 4 0 9 0 13 0 4 0 9 0 13 0 4 0 9 0 13 0 4 0 9 0 13 0 4 0 9 0 13 0 5 1 9 1 13 1 5 0 9 0 14 0 4 0 9 0 13 0 4 0 9 0 13-1 5 0 9 0 13 0 5 0 9 0 14-1 4 0 8 0 13 0 4 0 8-1 12-1 5 0 9 0 13 0 5 0 9 0 13 0 5 0 9 0 13 0 5 0 9 0 14 0 4 0 8 0 13 0 4 1 9 1 13 0 4 0 9 0 13 0 5 0 9 0 13 0 5 0 9 0 14 0 4 0 8 0 13 0 4 0 8-1 13-1 4 0 9-1 13-1 4-1 9-1 13-2 4 0 10-1 13-1 3 0 4-1 5-2 1-1 2-2 2-4 1-1 1-3 0-4 0-2-1-3-3-4-1-1-1-1-4-1-3-1-9 0-13-1-5 0-9 0-13 0-5-1-9-1-14-1-4-1-8-1-13-1-4 0-8 0-13 0-4 0-8 1-13 1-4 0-9 0-13 0-4 0-9 0-13 0-4 0-9 0-13 0-4 0-9 0-13 0-4-1-9-1-13-1-4 0-9 0-13-1-5 0-9 0-13 0-5 0-9-1-14-1-4 0-9 0-13 0-4 0-9 0-13 0-5 1-9 1-13 1-5 0-9 0-13 0-5 1-9 1-13 1-5 0-9 0-13 0-5 0-9 0-13 0-5 0-9 0-13 0-5 0-9-1-13-1-5 0-9 0-14 0-4 0-8 0-13 0-4 0-9 0-13 0-4 0-9 0-13 0-5 0-9 0-13 1-5 0-9 0-13 0-5 0-9 0-14 0-4 0-8 0-13 0-4 0-8 0-13 0-4 1-8 1-13 0-4 0-8 0-13 0-4 0-9 0-13 0-4 0-9 0-13 0-5 0-9 0-13 0-5 0-9 1-14 1-4 0-9 0-13 0-4 1-9 1-13 1-5 1-9 1-13 1-5 1-9 1-13 1-4 0-9 0-13 0-4 1-9 1-13 1-4 0-9-1-13-1-4 0-9 0-13 0-4 0-9-1-13-1-5 0-9 0-14 0-4 0-8 0-13 0-4 0-8 0-13-1-4 0-9 0-13 0-4 0-9 0-13 0-4 0-9 0-13 0-4 0-9 0-13 0-5 0-9 0-13 0-5 0-9 0-13 0-5 0-9-1-13 0-5 0-9 0-13 0-5 1-9 1-14 2-4 0-8 1-13 1-4 0-10 0-13 0-3 0-4 0-5 1-1 1-3 3-3 5-1 1-1 4-1 5 1 2 2 4 4 5 1 1 2 1 5 2z"/></g><g visibility="hidden"><animate attributeName="visibility" calcMode="discrete" values="hidden;visible" keyTimes="0;0.9167" dur="1s" repeatCount="indefinite"/><path fill="#d97757" d="M580 198c5 0 11 0 17 0 5 1 11 1 16 2 6 2 11 3 16 5 6 2 11 4 16 7 5 2 10 5 15 8 4 3 9 7 13 11 4 4 8 8 12 12 3 4 7 9 10 14 3 5 5 10 8 15 2 5 4 10 5 16 2 5 3 10 4 16 1 6 2 11 2 17 0 5 0 11 0 17-1 5-2 11-3 16-1 6-2 11-4 17-2 5-4 10-7 15-2 5-5 10-8 15-3 5-6 10-10 14-3 4-7 8-12 12-4 4-8 8-13 11-5 3-10 6-15 8-5 3-10 5-16 7-5 1-11 3-16 4-6 1-12 2-18 2-5 1-11 0-17 0-5 0-11-1-17-2-5-2-11-3-16-5-6-2-11-5-16-7-5-3-10-6-15-9-4-4-9-7-13-11-4-4-8-9-11-13-4-5-7-9-10-14-3-5-5-10-8-15-2-6-4-11-6-16-1-6-3-11-4-17-1-5-1-11-2-17 0-5 0-11 1-16 0-6 1-12 3-17 1-6 2-11 4-16 2-6 5-11 7-16 3-5 6-10 9-14 3-5 6-9 10-13 4-5 8-8 12-12 4-4 9-7 13-10 5-3 10-6 15-9 5-2 10-4 16-6 5-2 10-3 16-4 5-1 11-2 17-2z"/><path fill="#e3dacc" d="M583 986c6 0 12 0 17 0 6 0 11 0 17 0 6 0 11 0 17 0 6 1 11 1 17 2 6 1 15 2 17 5 3 3 3 11 0 14-3 3-12 4-17 5-6 2-12 2-17 3-6 0-12 1-17 1-6 0-12 0-17 0-6 0-12 0-17 0-6 0-11-1-17-1-6-1-12-2-17-3-6-1-14-2-17-6-3-3-2-9 1-12 3-3 11-4 17-5 5-1 11-1 17-2 5 0 11-1 16-1z"/><path fill="#141413" d="M594 200c4 0 8 0 12 0 4 0 8 0 12 1 4 0 8 1 11 2 4 0 8 1 12 3 3 1 7 2 11 4 3 1 7 3 10 5 3 2 7 4 10 7 3 2 6 5 9 7 3 3 5 6 8 9 2 3 5 6 7 10 2 3 5 6 7 10 2 3 3 7 5 10 2 4 3 8 5 11 1 4 2 8 3 12 1 4 2 7 3 11 0 4 0 8 1 12 0 4 0 8-1 12 0 4 0 8-1 12-1 4-2 8-3 12-1 4-2 8-3 12-2 3-4 7-5 10-2 4-4 7-7 11-2 3-5 6-7 9-3 3-5 6-8 8-3 3-6 6-9 8-3 3-6 5-10 7-3 2-6 4-10 6-3 2-7 4-10 5-4 2-7 3-11 4-4 1-7 2-11 3-4 1-8 1-12 1-4 1-8 1-11 0-4 0-8 0-12-1-4 0-8-1-12-1-3-1-7-2-11-4-4-1-7-2-11-4-3-1-7-3-10-5-3-2-7-4-10-6-3-2-6-5-9-7-2-3-5-6-8-9-2-2-5-5-7-8-2-3-5-7-7-10-2-3-4-6-5-10-2-3-4-7-5-10-2-4-3-7-4-11-1-4-2-7-3-11 0-4-1-8-1-11 0-4 0-8 0-12 0-4 1-7 1-11 1-4 2-8 3-11 0-4 2-8 3-11 1-4 2-8 4-11 1-4 3-7 5-11 2-3 4-6 6-9 2-4 4-7 6-10 3-3 5-6 8-8 3-3 5-6 8-8 3-2 6-5 10-7 3-2 6-4 9-6 4-1 7-3 11-4 4-1 7-3 11-4 4 0 8-1 12-2 3 0 7-1 11-1zM579 177c-4 1-9 2-14 3-4 1-9 2-13 3-5 2-9 3-14 5-4 2-8 4-12 7-4 2-8 5-12 8-4 3-8 6-11 9-4 4-7 7-10 11-3 4-6 7-8 11-3 4-5 8-7 13-3 4-5 8-6 12-2 5-4 9-5 13-1 5-2 9-3 14-1 4-2 9-2 14-1 4-1 9-1 14 0 4 0 9 1 13 0 5 1 10 2 14 0 5 2 9 3 14 1 4 3 9 4 13 2 4 4 8 6 12 2 4 5 8 7 12 3 4 6 8 9 11 3 4 6 7 9 10 3 3 6 7 10 9 3 3 7 6 11 9 3 2 7 5 11 7 4 2 8 4 12 6 4 2 9 4 13 5 4 2 9 3 13 4 5 1 9 2 13 3 5 1 10 2 14 2 5 1 10 1 14 1 5 0 10 0 15-1 4-1 9-2 14-3 5-1 9-3 14-4 4-2 9-4 13-7 4-2 8-4 12-7 4-3 8-6 11-9 4-3 8-7 11-10 3-4 6-7 9-11 2-4 5-8 7-12 3-5 5-9 7-13 2-4 4-9 5-13 2-5 3-9 4-14 1-4 2-9 3-13 1-5 1-10 2-14 0-5 0-10 0-14 0-5-1-10-1-14-1-5-2-10-3-14-1-5-2-9-3-14-2-4-4-8-6-13-1-4-4-8-6-12-2-4-5-8-7-12-3-4-6-7-9-11-3-3-6-7-9-10-4-3-7-7-11-10-3-2-7-5-11-8-4-2-8-5-13-7-4-2-8-4-13-5-4-2-9-3-13-4-5-2-10-2-14-3-5-1-9-1-14-1-5 0-9 0-14 0-5 0-9 0-14 1z"/><path fill="#141413" d="M200 995c3 0 8 0 13 1 4 0 9 1 13 2 4 0 9 1 13 2 5 0 9 0 13 1 5 0 9 0 14 0 4 0 8 0 13 0 4 0 8 0 13 0 4 0 9 0 13 0 4 0 9 0 13 0 4-1 9-1 13-1 5 0 9 0 13 0 5-1 9-1 13-1 5 0 9-1 14-1 4 0 8 0 13 0 4 0 8 0 13 0 4 0 8 0 13 0 4 0 8 1 13 1 4 0 9 0 13 0 5 0 9 0 14-1 4 0 8 0 13 0 4 0 9 0 13 0 4-1 9-1 13-1 4 0 9 0 13 0 4-1 9-1 13-1 4 0 9 0 13 0 4 0 9 0 13 0 4 0 9 0 13 0 4 1 9 1 13 1 4 0 9 0 13 0 5 0 9 0 13 0 5 0 9 0 14 0 4 0 8 0 13 0 4 0 9 0 13 0 4 0 9 0 13 0 4 0 9 0 13 0 4 0 9 0 13 0 4 0 9 0 13 0 4 0 9 0 13 0 4 0 9 0 13 0 5 1 9 1 13 1 5 0 9 0 14 0 4 0 9 0 13 0 4 0 9 0 13-1 5 0 9 0 13 0 5 0 9 0 14-1 4 0 8 0 13 0 4 0 8-1 12-1 5 0 9 0 13 0 5 0 9 0 13 0 5 0 9 0 13 0 5 0 9 0 14 0 4 0 8 0 13 0 4 1 9 1 13 0 4 0 9 0 13 0 5 0 9 0 13 0 5 0 9 0 14 0 4 0 8 0 13 0 4 0 8-1 13-1 4 0 9-1 13-1 4-1 9-1 13-2 4 0 10-1 13-1 3 0 4-1 5-2 1-1 2-2 2-4 1-1 1-3 0-4 0-2-1-3-3-4-1-1-1-1-4-1-3-1-9 0-13-1-5 0-9 0-13 0-5-1-9-1-14-1-4-1-8-1-13-1-4 0-8 0-13 0-4 0-8 1-13 1-4 0-9 0-13 0-4 0-9 0-13 0-4 0-9 0-13 0-4 0-9 0-13 0-4-1-9-1-13-1-4 0-9 0-13-1-5 0-9 0-13 0-5 0-9-1-14-1-4 0-9 0-13 0-4 0-9 0-13 0-5 1-9 1-13 1-5 0-9 0-13 0-5 1-9 1-13 1-5 0-9 0-13 0-5 0-9 0-13 0-5 0-9 0-13 0-5 0-9-1-13-1-5 0-9 0-14 0-4 0-8 0-13 0-4 0-9 0-13 0-4 0-9 0-13 0-5 0-9 0-13 1-5 0-9 0-13 0-5 0-9 0-14 0-4 0-8 0-13 0-4 0-8 0-13 0-4 1-8 1-13 0-4 0-8 0-13 0-4 0-9 0-13 0-4 0-9 0-13 0-5 0-9 0-13 0-5 0-9 1-14 1-4 0-9 0-13 0-4 1-9 1-13 1-5 1-9 1-13 1-5 1-9 1-13 1-4 0-9 0-13 0-4 1-9 1-13 1-4 0-9-1-13-1-4 0-9 0-13 0-4 0-9-1-13-1-5 0-9 0-14 0-4 0-8 0-13 0-4 0-8 0-13-1-4 0-9 0-13 0-4 0-9 0-13 0-4 0-9 0-13 0-4 0-9 0-13 0-5 0-9 0-13 0-5 0-9 0-13 0-5 0-9-1-13 0-5 0-9 0-13 0-5 1-9 1-14 2-4 0-8 1-13 1-4 0-10 0-13 0-3 0-4 0-5 1-1 1-3 3-3 5-1 1-1 4-1 5 1 2 2 4 4 5 1 1 2 1 5 2z"/></g></svg>